<svg width="160" height="38" viewBox="0 0 160 38" fill="none" xmlns="http://www.w3.org/2000/svg">
<g id="logo&#229;&#173;&#151;">
<path id="Vector" d="M36.3928 17.8932C36.2519 14.913 35.5358 12.2005 34.2327 9.7555C33.4227 8.23501 32.4013 6.82399 31.1452 5.51028C27.6116 1.83676 23.3031 0 18.2081 0C13.1131 0 8.82819 1.83676 5.29457 5.51028C5.14195 5.66841 5.01282 5.8387 4.8602 6.009C3.99147 6.96995 3.25187 7.97956 2.61793 9.04999C0.89221 11.9572 0 15.2536 0 18.9636C0 24.2671 1.76094 28.7678 5.29457 32.4535C8.82819 36.1391 13.1249 37.9881 18.2081 37.9881C23.2914 37.9881 27.6116 36.1391 31.1452 32.4535C34.6788 28.7678 36.4398 24.2671 36.4398 18.9636C36.4398 18.5987 36.4163 18.2581 36.3928 17.9054V17.8932ZM20.7439 20.7274C20.0747 21.4572 19.2295 21.8222 18.2081 21.8222C17.1868 21.8222 16.365 21.4572 15.6959 20.7274C15.0267 19.9976 14.698 19.0731 14.698 17.9662C14.698 16.8593 15.0267 15.9348 15.6959 15.205C15.8015 15.0955 15.9072 15.0103 16.0246 14.913C16.635 14.39 17.3629 14.1102 18.2081 14.1102C19.2295 14.1102 20.0747 14.4751 20.7439 15.205C21.0491 15.5456 21.2722 15.9226 21.4483 16.3362C21.6479 16.8228 21.7535 17.3701 21.7535 17.9662C21.7535 19.0731 21.4248 19.9976 20.7556 20.7274H20.7439Z" fill="white"/>
<path id="Vector_2" d="M60.4697 4.17406L59.6479 0.585693H44.2456L42.3085 8.991L40.2776 17.7855L35.7578 37.3939H46.57L47.9787 31.1659H55.9147L57.3235 37.3939H68.1239L62.5593 13.2241L60.4697 4.17406ZM49.951 22.4808L51.3011 16.3259L51.9585 13.3457L52.5572 16.0583L53.966 22.4808H49.9627H49.951Z" fill="white"/>
<path id="Vector_3" d="M98.0251 17.4553C96.5576 16.543 94.468 15.5334 91.7561 14.4265C89.2908 13.429 87.7646 12.6992 87.1776 12.237C86.5907 11.7747 86.3089 11.3125 86.3089 10.8624C86.3089 9.41491 87.2363 8.69724 89.0795 8.69724C92.4018 8.69724 95.3367 10.4853 97.9077 14.0737L101.817 2.46929C98.4829 1.2164 94.9375 0.450067 91.1574 0.145968C89.9834 0.0486563 88.7977 0 87.5885 0C81.9887 0 77.7507 1.03394 74.8745 3.11398C72.597 4.76828 71.2352 7.0551 70.7657 9.97445C70.6483 10.7286 70.5661 11.5071 70.5661 12.3464C70.5661 14.4508 71.0239 16.2024 71.9396 17.5769C72.8553 18.9636 73.9354 20.0219 75.1798 20.7761C76.4242 21.5181 77.9855 22.2966 79.8873 23.075C81.977 23.963 83.2684 24.6564 83.7614 25.1551C84.2545 25.6538 84.4893 26.1769 84.4893 26.7242C84.4893 27.3081 84.2427 27.7947 83.7379 28.1961C83.2331 28.5975 82.6109 28.8043 81.8596 28.8043C80.3334 28.8043 78.7486 28.2691 77.0933 27.2108C75.438 26.1525 74.0528 24.7172 72.9375 22.9169L69.0986 35.2147C73.6419 37.0636 79.0656 37.9881 85.3463 37.9881C90.9461 37.9881 95.1958 36.9541 98.0838 34.8863C100.972 32.8184 102.416 29.8139 102.416 25.8728C102.416 23.9873 102.052 22.3452 101.324 20.922C100.596 19.511 99.4925 18.3433 98.0251 17.4431V17.4553Z" fill="white"/>
<path id="Vector_4" d="M122.573 0.585693H106.854V37.3939H122.573V0.585693Z" fill="white"/>
<path id="Vector_5" d="M158.909 20.934C158.181 19.523 157.077 18.3552 155.61 17.4551C154.143 16.555 152.053 15.5332 149.341 14.4263C146.876 13.4288 145.35 12.699 144.763 12.2368C144.176 11.7745 143.894 11.3123 143.894 10.8622C143.894 9.41471 144.821 8.69704 146.664 8.69704C149.987 8.69704 152.922 10.4851 155.493 14.0735L159.402 2.46908C155.047 0.826949 150.304 0.0119629 145.173 0.0119629C139.574 0.0119629 135.336 1.0459 132.459 3.12594C129.583 5.20598 128.151 8.28346 128.151 12.3584C128.151 14.4628 128.609 16.2144 129.525 17.5889C130.44 18.9756 131.52 20.0339 132.765 20.788C134.009 21.53 135.57 22.3085 137.472 23.087C139.562 23.975 140.853 24.6683 141.346 25.1671C141.839 25.6658 142.074 26.1888 142.074 26.7362C142.074 27.3201 141.828 27.8066 141.323 28.208C140.818 28.6095 140.196 28.8162 139.445 28.8162C137.918 28.8162 136.334 28.281 134.678 27.2228C133.023 26.1645 131.638 24.7291 130.522 22.9289L126.684 35.2267C131.227 37.0756 136.651 38 142.931 38C148.531 38 152.781 36.9661 155.669 34.8982C158.557 32.8303 160.001 29.8258 160.001 25.8847C160.001 23.9993 159.637 22.3572 158.909 20.934Z" fill="white"/>
</g>
</svg>
