<?xml version="1.0" encoding="UTF-8"?>
<svg id="_圖層_1" data-name="圖層 1" xmlns="http://www.w3.org/2000/svg" viewBox="0 0 100 82">
  <defs>
    <style>
      .cls-1 {
        fill: #040000;
      }
    </style>
  </defs>
  <polygon class="cls-1" points="51.62 20.48 51.62 20.48 51.62 20.48 51.62 20.48"/>
  <path class="cls-1" d="m39.06,5.85c-2.19.51-3.91,1.22-5.93,2.1-.3.25-.57.49-.79.71.38-.01.75-.02,1.12-.02,1.36,0,2.65.09,3.87.27,2.13-.69,3.97-1.17,6.26-1.43l-.58-.33c-1.33-.75-2.65-1.18-3.94-1.3Z"/>
  <path class="cls-1" d="m44.83,7.38c1.1-.11,1.92-.12,3.05-.12,10.45,0,19.81,4.66,26.13,12.01,5.19,6.03,8.33,13.87,8.33,22.45,0,5.36-1.22,10.43-3.4,14.95,6.51-12.73,5.46-22.83,2.63-29.87-1.94-4.37-4.7-8.29-8.09-11.56-6.63-6.41-15.65-10.36-25.6-10.36-1.41,0-2.51.05-3.88.2.35.74.52,1.28.54,1.36l.29.95Z"/>
  <path class="cls-1" d="m28.94,72.44c-.07-1.42-.42-2.71-1.06-3.88-.4-.72-.9-1.4-1.53-2.02-.08-.08-.15-.15-.23-.22-5.57-6.22-18.57-23.93-6.68-42.96,1.66-2.96,3.79-5.11,6.5-6.01,2.75,1.78,5.13,4.35,6.77,7,.27.44.53.88.76,1.32,0,0,0,0,0,0,.2.39.39.78.56,1.17.16.36.3.72.42,1.08.06.18.12.35.17.53.11.35.2.69.27,1.03.14.67.21,1.31.19,1.91s-.12,1.14-.31,1.63h0s0,0,0-.01c0-.01.02-.03.05-.06.02-.03.06-.07.1-.12.06-.08.14-.19.24-.31.06-.09.13-.18.2-.29,0,0,0-.01.01-.02.05-.08.1-.16.16-.24.06-.1.13-.2.19-.31.13-.22.26-.46.4-.72.34-.66.67-1.44.91-2.34.05-.18.09-.36.13-.55.08-.37.14-.76.18-1.17.06-.6.07-1.24,0-1.9-.06-.61-.18-1.23-.37-1.87-.14-.46-.31-.94-.53-1.42-.69-1.51-1.81-3.08-3.55-4.65,0,0,.22.02.61.08.29.04.68.1,1.15.19.31.06.66.13,1.04.21.38.08.78.18,1.21.28s.89.23,1.36.37c.24.07.48.14.72.22.49.16,1,.33,1.52.52.26.1.52.2.78.3.2.08.39.16.59.24.6.25,1.21.53,1.82.84.13.07.26.14.39.2h0c.41.22.82.44,1.23.68,1.07.64,2.11,1.37,3.09,2.2.49.42.96.87,1.41,1.34.45.47.88.98,1.28,1.51s.78,1.1,1.12,1.69c0,0,0-.02,0-.04,0,0,0,0,0-.01,0-.03,0-.08,0-.15,0,0,0,0,0,0,0-.07,0-.15,0-.24,0,0,0,0,0-.02,0-.09,0-.2,0-.32,0,0,0-.02,0-.02,0-.12,0-.25-.02-.4,0,0,0-.02,0-.03,0-.15-.02-.3-.03-.47,0-.01,0-.02,0-.04-.01-.17-.03-.34-.05-.53,0-.01,0-.02,0-.04-.02-.19-.04-.39-.07-.6,0-.01,0-.02,0-.03-.03-.21-.06-.43-.09-.66,0,0,0-.02,0-.03-.04-.23-.08-.47-.13-.71,0,0,0,0,0-.01-.19-.99-.47-2.08-.87-3.21h0c-.11-.3-.23-.61-.36-.92,0,0,0,0,0,0-.06-.14-.13-.29-.19-.44-.04-.08-.07-.16-.1-.24-.03-.06-.06-.12-.09-.19,0,0,0-.02-.01-.03-.13-.28-.28-.56-.43-.84,0-.02-.02-.03-.03-.05-.15-.27-.31-.54-.48-.81-.01-.02-.03-.04-.04-.06-.17-.27-.35-.53-.53-.79-.02-.02-.03-.05-.05-.07-.19-.26-.39-.51-.59-.77-.02-.02-.04-.05-.06-.07-.21-.25-.43-.5-.66-.74-.02-.02-.04-.04-.06-.07-.23-.24-.48-.48-.73-.71-.02-.02-.04-.04-.07-.06-.26-.23-.53-.46-.81-.68-.02-.02-.04-.03-.06-.05-.29-.22-.59-.44-.91-.65-.01,0-.03-.02-.04-.03-.33-.21-.66-.41-1.02-.61,0,0,0,0-.01,0-.72-.39-1.49-.74-2.33-1.04-.02,0-.04-.01-.06-.02-.4-.14-.82-.27-1.25-.39-.04-.01-.07-.02-.11-.03-.42-.12-.86-.22-1.31-.31-.05-.01-.1-.02-.16-.03-.44-.09-.91-.16-1.38-.22-.07,0-.13-.02-.2-.03-.26-.03-.52-.06-.79-.08-.22-.02-.44-.04-.67-.05-.08,0-.15-.01-.23-.01-.5-.03-1.02-.04-1.55-.05-.04,0-.08,0-.13,0-.06,0-.13,0-.19,0-.25,0-.51,0-.77.01-.12,0-.24,0-.36.01-.38.02-.77.04-1.16.07,0,0,.01-.02.02-.03,0,0,.01-.02.02-.02.02-.03.05-.07.09-.12,0,0,0,0,0,0,.04-.05.09-.11.14-.17.01-.02.03-.03.04-.05.05-.06.11-.12.17-.19,0,0,0,0,0,0,.01-.01.03-.03.04-.04,0,0,.02-.02.02-.02.07-.08.15-.16.24-.25.02-.02.04-.04.06-.06.1-.1.2-.2.31-.31.01-.01.03-.03.05-.04.1-.1.21-.2.33-.3.03-.02.05-.05.08-.07.13-.11.27-.23.42-.34.02-.02.05-.04.08-.06.13-.1.27-.2.41-.3.03-.02.06-.04.09-.06.16-.11.33-.22.51-.33.03-.02.07-.04.11-.06.16-.09.32-.18.5-.27.03-.02.07-.04.1-.05.19-.1.39-.19.6-.27.05-.02.09-.04.14-.05.19-.07.38-.14.58-.21.03-.01.07-.02.1-.03.22-.07.45-.13.69-.18.06-.01.11-.02.17-.03.22-.04.44-.08.67-.11.03,0,.05,0,.08-.01.25-.03.51-.04.77-.04.09,0,.18,0,.27,0,.09,0,.18,0,.27,0,.11,0,.22.01.33.02.09,0,.18.02.27.03.11.01.23.03.34.05.09.01.18.03.27.05.12.02.24.05.36.08.09.02.18.04.27.06,0,0,0,0,0,0,0,0,0,0,0,0,.12.03.25.07.38.11.09.03.18.05.27.08.13.04.27.1.4.15.09.03.17.06.26.1.15.06.3.13.45.2.08.04.15.07.23.1.23.11.46.23.7.37,0,0,0,0,0-.02,0,0,0,0,0,0,0-.01,0-.03-.01-.04,0,0,0,0,0-.01,0-.02-.01-.04-.02-.06,0,0,0-.01,0-.02-.01-.03-.02-.07-.04-.11,0,0,0,0,0,0-.01-.04-.03-.08-.05-.13,0,0,0-.02-.01-.03-.02-.04-.03-.08-.05-.13,0-.01,0-.02-.01-.04-.02-.06-.05-.11-.07-.18,0,0,0,0,0,0-.03-.07-.06-.14-.09-.21,0,0,0,0,0,0-.03-.07-.06-.14-.1-.21,0-.01-.01-.02-.02-.04-.03-.07-.06-.13-.1-.2,0,0,0,0,0,0,0-.01-.01-.02-.02-.03-.08-.17-.17-.34-.27-.52,0,0-.01-.02-.02-.03-.04-.08-.09-.16-.14-.24,0-.02-.02-.03-.03-.05-.05-.08-.1-.17-.15-.25,0,0,0-.02-.01-.02-.12-.19-.25-.38-.38-.57-.01-.01-.02-.03-.03-.04-.06-.08-.12-.16-.18-.24-.01-.02-.03-.03-.04-.05-.07-.09-.14-.18-.22-.27,0,0,0,0,0,0-.08-.1-.16-.19-.25-.29,0,0,0,0-.01-.01-.08-.09-.16-.17-.24-.25-.02-.02-.03-.03-.05-.05-.07-.07-.15-.14-.22-.21-.02-.02-.03-.03-.05-.05-.19-.17-.38-.33-.59-.49-.02-.01-.03-.02-.05-.04-.08-.06-.17-.12-.26-.18-.03-.02-.05-.03-.08-.05-.09-.06-.17-.11-.26-.16-.02-.01-.05-.03-.07-.04-.22-.13-.46-.24-.7-.34-.03-.01-.06-.02-.1-.04-.09-.04-.19-.07-.28-.1-.04-.01-.07-.02-.11-.04-.1-.03-.21-.06-.31-.09-.03,0-.05-.01-.08-.02-.13-.03-.27-.06-.41-.08-.03,0-.05,0-.08-.01-.11-.02-.22-.03-.34-.04-.05,0-.09,0-.14,0-.1,0-.2-.01-.31-.01-.05,0-.09,0-.14,0-.17,0-.33,0-.51.02-.03,0-.06,0-.09,0-.15.01-.3.03-.45.06-.05,0-.1.02-.15.03-.18.03-.36.07-.55.12-.02,0-.04.01-.06.02-.17.04-.35.1-.52.16-.06.02-.11.04-.17.06-.17.06-.35.13-.53.2-.03.01-.05.02-.08.03-.2.08-.4.18-.61.28-.06.03-.12.06-.19.09-.17.09-.35.18-.53.28-.04.03-.09.05-.13.07-.21.12-.43.26-.66.4-.06.04-.13.08-.19.13-.18.12-.37.25-.55.38-.06.04-.11.08-.17.12-.23.17-.47.35-.71.54-.06.05-.12.1-.18.15-.2.16-.4.33-.6.5-.07.06-.13.11-.2.17-.25.22-.5.45-.76.7-.05.05-.11.1-.16.15-.22.21-.44.43-.66.65-.07.07-.14.14-.22.22-.27.28-.54.57-.82.87-.03.04-.07.08-.1.12-.25.27-.51.56-.76.86-.08.09-.15.18-.23.27-.29.34-.59.69-.89,1.06,0,0,0-.01,0-.03,0,0,0-.02,0-.03,0-.02,0-.04,0-.07,0-.02,0-.03,0-.05,0-.03,0-.07,0-.1,0-.02,0-.05,0-.07,0-.04,0-.09-.01-.15,0-.03,0-.05,0-.08,0-.08-.02-.17-.03-.26,0-.02,0-.05,0-.07,0-.08-.02-.16-.03-.24,0-.04-.01-.08-.02-.12-.01-.07-.03-.15-.04-.22,0-.05-.02-.1-.03-.15-.02-.08-.03-.16-.05-.24-.01-.05-.02-.1-.04-.16-.02-.09-.05-.19-.08-.29-.01-.04-.02-.08-.03-.12-.04-.14-.09-.28-.14-.42-.02-.05-.04-.09-.05-.14-.04-.1-.08-.21-.12-.31-.02-.06-.05-.12-.08-.18-.04-.09-.08-.19-.13-.29-.03-.06-.06-.13-.09-.19-.05-.1-.1-.2-.16-.3-.03-.06-.06-.12-.1-.18-.08-.13-.16-.26-.25-.39-.02-.03-.03-.06-.05-.08-.1-.15-.22-.31-.34-.46-.04-.05-.09-.1-.13-.16-.08-.1-.17-.2-.26-.3-.05-.06-.11-.12-.17-.17-.09-.09-.18-.19-.28-.28-.06-.06-.12-.11-.18-.17-.11-.1-.22-.19-.34-.28-.06-.05-.11-.09-.17-.14-.18-.13-.36-.26-.56-.39-.04-.02-.08-.04-.11-.07-.17-.1-.34-.2-.52-.3-.08-.04-.16-.08-.24-.12-.15-.07-.3-.15-.46-.21-.09-.04-.19-.08-.28-.12-.16-.06-.33-.12-.5-.18-.1-.03-.19-.07-.29-.1-.2-.06-.41-.12-.63-.18-.08-.02-.15-.04-.23-.06-.3-.07-.6-.13-.92-.18-.08-.01-.17-.02-.25-.03-.25-.04-.5-.07-.76-.09-.12-.01-.25-.02-.38-.03-.24-.02-.48-.03-.72-.04-.14,0-.28,0-.42-.01-.3,0-.61,0-.93,0-.07,0-.13,0-.2,0-.39.02-.8.04-1.23.08-.11,0-.21.02-.32.03-.35.03-.7.08-1.07.13-.11.02-.22.03-.33.05-.46.07-.93.15-1.42.24-.09.02-.18.04-.27.05-.41.08-.84.17-1.28.27-.14.03-.28.07-.43.1-.53.13-1.07.27-1.63.42,0,0,14.13,2.02,12.55,7.24,0,0,0,0-.01,0,0,0-.03,0-.05,0-.01,0-.04,0-.06,0-.02,0-.05,0-.08,0-.03,0-.06,0-.1,0-.04,0-.08,0-.12,0-.04,0-.09,0-.13,0-.05,0-.1,0-.15.01-.05,0-.11.01-.17.02-.06,0-.12.01-.19.02-.06,0-.13.02-.2.02-.07,0-.14.02-.21.03-.07,0-.16.02-.23.03-.08.01-.15.02-.24.04-.08.01-.17.03-.26.05-.09.02-.17.03-.26.05-.09.02-.19.04-.28.06-.09.02-.19.04-.29.06-.1.02-.2.05-.3.07-.1.02-.2.05-.31.08-.11.03-.22.06-.32.09-.11.03-.21.06-.32.09-.11.03-.23.07-.34.11-.11.04-.22.07-.33.11-.12.04-.23.09-.35.13-.12.04-.23.08-.35.13-.12.05-.24.1-.37.15-.12.05-.24.1-.35.15-.12.05-.25.12-.37.17-.12.06-.24.11-.36.17-.13.06-.25.13-.38.2-.12.07-.24.13-.37.2-.13.07-.25.15-.38.23-.12.07-.24.14-.37.22-.13.08-.25.17-.38.26-.12.08-.24.16-.37.25-.13.09-.25.19-.38.29-.12.09-.24.18-.36.28-.13.1-.25.21-.38.32-.12.1-.24.2-.35.31-.12.11-.25.24-.37.36-.11.11-.23.22-.34.34-.12.13-.24.26-.36.39-.11.12-.22.24-.33.37-.12.14-.23.29-.35.43-.11.13-.21.26-.32.4-.11.15-.22.32-.33.48-.1.15-.2.28-.3.44-.11.17-.21.35-.31.52-.09.16-.19.31-.28.47-.1.18-.2.38-.29.57-.09.17-.17.33-.26.5-.09.2-.18.42-.27.62-.08.18-.16.35-.23.53-.09.22-.17.46-.25.69-.07.19-.14.37-.2.56-.08.24-.15.5-.22.76-.06.19-.12.38-.17.58-.07.28-.13.57-.2.86-.04.19-.09.38-.13.57-.07.33-.12.68-.17,1.03-.03.17-.06.33-.08.5-.07.53-.14,1.08-.18,1.64,0,0,0,0,0-.02,0,0,0-.01.02-.03.01-.02.03-.05.05-.08,0,0,.01-.02.02-.02.03-.04.06-.09.1-.15,0,0,0,0,0,0,.04-.06.08-.12.13-.19.01-.02.02-.03.03-.04.05-.07.1-.15.16-.24.01-.02.02-.03.03-.05.06-.09.13-.19.2-.29,0-.01.02-.03.03-.04.07-.1.14-.21.22-.32.01-.01.02-.03.03-.04.08-.12.17-.24.26-.37.02-.02.03-.05.05-.07.09-.13.19-.26.29-.4.01-.02.03-.04.04-.05.1-.14.21-.27.32-.42.01-.01.02-.03.03-.04.11-.15.23-.3.35-.45.02-.03.04-.06.07-.09.12-.15.25-.31.37-.47.02-.02.04-.05.06-.08.13-.16.27-.32.41-.49,0,0,.01-.01.02-.02.14-.17.29-.34.43-.51.03-.03.05-.06.08-.09.14-.17.29-.33.44-.5.03-.03.05-.06.08-.09.32-.35.65-.7.99-1.05.03-.03.06-.06.09-.09.17-.17.34-.33.51-.5.03-.03.06-.06.09-.09.18-.17.36-.34.54-.51.01,0,.02-.02.03-.03.18-.16.36-.32.54-.48.03-.02.06-.05.09-.07.18-.16.37-.31.56-.46.04-.03.07-.06.11-.09.19-.15.38-.3.58-.45.02-.02.04-.03.06-.05.19-.14.38-.28.57-.41.03-.02.05-.04.08-.06.2-.14.4-.27.6-.39.04-.03.08-.05.12-.07.2-.13.41-.25.61-.36.03-.02.06-.03.09-.05.2-.11.4-.22.6-.32.02-.01.04-.02.07-.03.21-.1.42-.2.63-.29.04-.02.08-.04.12-.05.21-.09.42-.17.63-.24.04-.01.07-.02.11-.04.21-.07.42-.14.64-.2.01,0,.02,0,.04-.01.22-.06.44-.11.66-.15.04,0,.08-.02.12-.02.21-.04.43-.07.64-.09.04,0,.08,0,.12-.01.22-.02.45-.03.67-.03,0,0,0,0,.01,0,.16,0,.33,0,.49.02.05,0,.11,0,.16.01.12.01.23.02.35.04.06,0,.12.02.18.03.12.02.24.04.35.07.05.01.11.02.16.03.17.04.34.08.51.14,0,0,0,0,.01,0,.16.05.33.11.49.18.05.02.11.04.16.07.12.05.23.1.35.16.06.03.12.06.18.09.12.06.23.12.35.19.05.03.11.06.16.09.17.1.33.2.5.32,0,0-1.56,1.83-3.66,5.31h0s-.35.54-.35.54h0c-.36.52-1.18,1.78-2.1,3.64-.14.29-.29.59-.43.9-.51,1.1-1.03,2.37-1.51,3.78-.27.81-.53,1.66-.77,2.57-.35,1.35-.65,2.8-.86,4.34-.07.51-.13,1.03-.18,1.57-.02.27-.05.53-.06.8-.04.54-.06,1.09-.07,1.65-.01.56,0,1.12,0,1.7.03.86.08,1.74.18,2.63.06.6.14,1.2.24,1.81.15.92.34,1.85.57,2.79s.51,1.9.84,2.87c.11.32.22.65.34.97.24.65.5,1.31.79,1.97s.6,1.33.93,1.99c1.08,2.15,2.42,4.34,4.06,6.55-1.68.34-3.15,1.15-4.42,2.43-.08.08-.14.16-.21.24-4.28-1.26-6.84-2.71-6.84-2.71,1.56,1.47,3.49,2.9,5.73,4.16-.85,1.39-1.29,2.96-1.29,4.72,0,2.53.87,4.67,2.61,6.42,1.74,1.76,3.86,2.64,6.37,2.64s4.64-.88,6.38-2.64c1.74-1.76,2.61-3.9,2.61-6.42,0-.17-.01-.34-.02-.51Zm-7.72,1.35c-.33.35-.75.52-1.25.52s-.91-.17-1.24-.52c-.33-.35-.49-.79-.49-1.31s.16-.97.49-1.31c.05-.05.11-.09.16-.14.3-.25.66-.38,1.08-.38.51,0,.92.17,1.25.52.15.16.26.34.35.54.1.23.15.49.15.78,0,.53-.16.97-.49,1.31Z"/>
  <g>
    <path class="cls-1" d="m50.65,36.31c-.83-.43-1.77-.67-2.77-.67-3.36,0-6.08,2.72-6.08,6.08,0,.89.2,1.73.54,2.49.57,1.26,1.55,2.29,2.77,2.92.83.43,1.77.67,2.77.67,3.36,0,6.08-2.72,6.08-6.08,0-.89-.2-1.73-.54-2.49-.57-1.26-1.55-2.29-2.77-2.92Zm-2.77,8.23c-.46,0-.9-.12-1.28-.32-.57-.29-1.02-.76-1.29-1.35-.16-.35-.25-.74-.25-1.16,0-1.56,1.26-2.82,2.82-2.82.46,0,.9.12,1.28.32.57.29,1.02.76,1.29,1.35.16.35.25.74.25,1.16,0,1.56-1.26,2.82-2.82,2.82Z"/>
    <path class="cls-1" d="m50.99,18.87c.24.53.44,1.07.62,1.59h0s0,.02,0,.02c0,0,0,0,0,0v.02s0,0,0,0c1.32,3.87,1.19,7.23,1.18,7.45l-.09,2.01-1-1.75c-2.04-3.55-5.32-5.94-8.58-7.53,0,0,0,0,0,0-.74-.36-1.47-.68-2.19-.96-1.39.44-2.72,1-3.98,1.68.22.48.4.95.54,1.41,0,0,0,0,0,0,1.79,5.85-2.24,10.54-2.3,10.6l-2.18,2.47,1.2-3.07c.62-1.58.12-4.08-1.21-6.7-.23-.45-.47-.9-.75-1.35-4.58,4.22-7.45,10.26-7.45,16.98,0,10.57,7.11,19.47,16.8,22.2.67-.28,1.35-.58,2.04-.9h0s.47-.22.47-.22h0c.19-.09.38-.17.57-.27,6.99-3.49,13.4-5.5,19.16-6.35h.09c.72-.12,1.42-.2,2.12-.27,3.06-3.91,4.88-8.83,4.88-14.19,0-11.68-8.69-21.33-19.96-22.85Zm3.49,19.88c.41.91.64,1.91.64,2.97,0,4-3.24,7.24-7.24,7.24-1.19,0-2.31-.29-3.3-.8l-6.53,12.75s-.04-.02-.05-.03c-.34-.18-.68-.37-1.01-.56-.16-.1-.33-.19-.49-.29-.3-.19-.59-.38-.88-.58-.17-.12-.33-.24-.5-.36-.23-.17-.45-.34-.67-.51-2.67-2.13-4.83-4.87-6.25-8.03l13.07-5.88c-.41-.91-.64-1.91-.64-2.97,0-4,3.24-7.24,7.24-7.24,1.19,0,2.31.29,3.3.8l6.54-12.76s0,0,0,0c.53.27,1.05.57,1.56.89.04.02.08.05.12.08.45.28.88.58,1.31.9.09.07.17.13.26.2.39.3.77.61,1.14.93.06.05.12.11.18.16.42.38.83.77,1.22,1.18h0s0,0,0,0c.28.29.54.59.8.89,1.31,1.54,2.41,3.26,3.24,5.12,0,0,0,0,0,0l-13.07,5.88Z"/>
  </g>
  <path class="cls-1" d="m59.33,72.23c-.72-.43-1.75-.91-3.09-1.44-1.22-.47-1.97-.82-2.26-1.04-.29-.22-.43-.44-.43-.65,0-.69.45-1.03,1.37-1.03,1.64,0,3.09.85,4.35,2.56l1.93-5.52c-1.64-.6-3.39-.96-5.26-1.1,18.18-6.94,44.06.21,44.06.21-8.92-6.76-34.5-10.36-54.96-.13-1.42.71-2.83,1.31-4.22,1.84l-.41-1.71h-7.6l-.96,4-1,4.19-2.23,9.33h5.33l.69-2.96h3.91l.69,2.96h5.33l-2.75-11.5c1.32-.44,2.67-.95,4.05-1.54-.06.36-.1.73-.1,1.13,0,1,.23,1.83.68,2.49.45.66.98,1.17,1.6,1.52.61.36,1.39.72,2.32,1.1,1.03.42,1.67.75,1.91.99.24.24.36.49.36.75,0,.28-.12.51-.37.7s-.56.29-.92.29c-.75,0-1.53-.25-2.35-.76-.82-.51-1.5-1.19-2.05-2.04l-1.89,5.86c2.24.88,4.91,1.32,8.01,1.32,2.76,0,4.86-.49,6.28-1.48,1.42-.98,2.14-2.41,2.14-4.29,0-.9-.18-1.68-.54-2.35-.36-.67-.9-1.23-1.62-1.66Zm-23.71,2.39l.66-2.93.32-1.42.29,1.29.69,3.06h-1.97Z"/>
  <rect class="cls-1" x="63.69" y="64.2" width="7.75" height="17.52"/>
  <path class="cls-1" d="m87.74,72.23c-.72-.43-1.75-.91-3.09-1.44-1.22-.47-1.97-.82-2.26-1.04-.29-.22-.43-.44-.43-.65,0-.69.45-1.03,1.37-1.03,1.64,0,3.09.85,4.35,2.56l1.93-5.52c-2.15-.78-4.49-1.17-7.02-1.17-2.76,0-4.85.49-6.27,1.48-1.42.99-2.12,2.45-2.12,4.4,0,1,.23,1.83.68,2.49.45.66.98,1.17,1.6,1.52.61.36,1.39.72,2.32,1.1,1.03.42,1.67.75,1.91.99.24.24.36.49.36.75,0,.28-.12.51-.37.7s-.56.29-.92.29c-.75,0-1.53-.25-2.35-.76-.82-.51-1.5-1.19-2.05-2.04l-1.89,5.86c2.24.88,4.91,1.32,8.01,1.32,2.76,0,4.86-.49,6.28-1.48,1.42-.98,2.14-2.41,2.14-4.29,0-.9-.18-1.68-.54-2.35-.36-.67-.9-1.23-1.62-1.66Z"/>
  <path class="cls-1" d="m51.62,20.48s0,.01,0,.02h0s0-.02,0-.02Z"/>
</svg>