<svg width="494" height="404" viewBox="0 0 494 404" fill="none" xmlns="http://www.w3.org/2000/svg">
<g clip-path="url(#clip0_26_2117)">
<path d="M195.144 35.6116C184.764 37.8444 176.611 40.9528 167.036 44.8055C165.614 45.9 164.334 46.9507 163.291 47.9139C165.093 47.8701 166.846 47.8264 168.6 47.8264C175.047 47.8264 181.161 48.2204 186.944 49.0084C197.04 45.9876 205.762 43.8861 216.616 42.7478L213.867 41.3031C207.563 38.0195 201.306 36.137 195.192 35.6116H195.144Z" fill="white"/>
<path d="M222.494 42.31C227.708 41.8284 231.595 41.7847 236.951 41.7847C286.484 41.7847 330.851 62.1864 360.807 94.365C385.408 120.765 400.292 155.089 400.292 192.652C400.292 216.119 394.509 238.315 384.176 258.104C415.033 202.371 410.056 158.153 396.642 127.332C387.446 108.2 374.364 91.0377 358.295 76.7215C326.869 48.6582 284.114 31.3649 236.951 31.3649C230.268 31.3649 225.054 31.5838 218.56 32.2405C220.219 35.4803 221.025 37.8444 221.12 38.1947L222.494 42.3538V42.31Z" fill="white"/>
<path d="M147.176 327.146C146.844 320.929 145.185 315.281 142.151 310.159C140.255 307.007 137.885 304.03 134.899 301.315C134.52 300.965 134.188 300.659 133.809 300.352C107.407 273.121 45.787 195.586 102.146 112.271C110.014 99.3122 120.11 89.8994 132.956 85.9592C145.991 93.7521 157.272 105.004 165.045 116.606C166.325 118.532 167.558 120.458 168.648 122.385C169.596 124.092 170.496 125.799 171.302 127.507C172.061 129.083 172.724 130.659 173.293 132.235C173.577 133.023 173.862 133.767 174.099 134.556C174.62 136.088 175.047 137.576 175.379 139.065C176.042 141.998 176.374 144.8 176.279 147.427C176.184 150.054 175.71 152.418 174.81 154.563C174.81 154.563 174.81 154.563 174.81 154.519C174.81 154.476 174.905 154.388 175.047 154.257C175.142 154.125 175.331 153.95 175.521 153.731C175.805 153.381 176.184 152.9 176.658 152.374C176.943 151.98 177.275 151.586 177.606 151.105C177.606 151.105 177.606 151.061 177.654 151.017C177.891 150.667 178.128 150.317 178.412 149.966C178.697 149.528 179.028 149.091 179.313 148.609C179.929 147.646 180.545 146.595 181.209 145.457C182.82 142.567 184.385 139.152 185.522 135.212C185.759 134.424 185.949 133.636 186.138 132.804C186.518 131.184 186.802 129.477 186.992 127.682C187.276 125.055 187.323 122.253 186.992 119.364C186.707 116.693 186.138 113.979 185.238 111.177C184.574 109.163 183.768 107.061 182.726 104.96C179.455 98.3491 174.146 91.4755 165.899 84.602C165.899 84.602 166.941 84.6896 168.79 84.9522C170.165 85.1274 172.013 85.39 174.241 85.7841C175.71 86.0467 177.369 86.3532 179.171 86.7035C180.972 87.0537 182.868 87.4915 184.906 87.9293C186.944 88.3671 189.125 88.9363 191.352 89.5492C192.49 89.8557 193.628 90.1621 194.765 90.5124C197.088 91.2128 199.505 91.9571 201.97 92.7889C203.202 93.2268 204.435 93.6646 205.667 94.1024C206.615 94.4526 207.516 94.8028 208.464 95.1531C211.308 96.2476 214.199 97.4735 217.091 98.8307C217.707 99.1371 218.323 99.4436 218.939 99.7063C220.883 100.669 222.826 101.633 224.769 102.683C229.841 105.485 234.771 108.681 239.416 112.315C241.739 114.154 243.966 116.124 246.099 118.182C248.232 120.239 250.271 122.472 252.167 124.792C254.063 127.113 255.864 129.608 257.475 132.191C257.475 132.191 257.475 132.104 257.475 132.016C257.475 132.016 257.475 132.016 257.475 131.972C257.475 131.841 257.475 131.622 257.475 131.316C257.475 131.009 257.475 130.659 257.475 130.265C257.475 130.265 257.475 130.265 257.475 130.177C257.475 129.783 257.475 129.302 257.475 128.777V128.689C257.475 128.164 257.475 127.594 257.381 126.938C257.381 126.938 257.381 126.85 257.381 126.806C257.381 126.15 257.286 125.493 257.238 124.749C257.238 124.705 257.238 124.661 257.238 124.574C257.191 123.829 257.096 123.085 257.001 122.253C257.001 122.209 257.001 122.166 257.001 122.078C256.907 121.246 256.812 120.371 256.67 119.451C256.67 119.407 256.67 119.364 256.67 119.32C256.527 118.401 256.385 117.437 256.243 116.43C256.243 116.43 256.243 116.343 256.243 116.299C256.053 115.292 255.864 114.241 255.627 113.191C255.627 113.191 255.627 113.191 255.627 113.147C254.726 108.813 253.399 104.041 251.503 99.0933C250.982 97.7799 250.413 96.4227 249.797 95.0655C249.512 94.4526 249.18 93.7959 248.896 93.1392C248.706 92.7889 248.564 92.4387 248.422 92.0885C248.28 91.8258 248.138 91.5631 247.995 91.2566C247.995 91.2566 247.995 91.1691 247.948 91.1253C247.332 89.8994 246.621 88.6736 245.91 87.4477C245.91 87.3602 245.815 87.3164 245.768 87.2288C245.057 86.0467 244.298 84.8647 243.492 83.6826C243.445 83.595 243.35 83.5075 243.303 83.4199C242.497 82.2379 241.644 81.0996 240.791 79.9613C240.696 79.8737 240.648 79.7424 240.554 79.6548C239.653 78.5165 238.705 77.422 237.757 76.2837C237.662 76.1961 237.567 76.0648 237.473 75.9772C236.477 74.8827 235.434 73.7882 234.344 72.7375C234.249 72.6499 234.155 72.5624 234.06 72.431C232.97 71.3803 231.785 70.3296 230.6 69.3226C230.505 69.235 230.41 69.1475 230.268 69.0599C229.035 68.053 227.756 67.046 226.428 66.0829C226.334 65.9953 226.239 65.9515 226.144 65.8639C224.769 64.9008 223.347 63.9376 221.831 63.0182C221.783 63.0182 221.688 62.9307 221.641 62.8869C220.077 61.9675 218.513 61.0919 216.806 60.2163C216.806 60.2163 216.806 60.2163 216.759 60.2163C213.346 58.5088 209.696 56.9765 205.715 55.6631C205.62 55.6631 205.525 55.6193 205.43 55.5755C203.534 54.9626 201.543 54.3935 199.505 53.8681C199.316 53.8243 199.173 53.7805 198.984 53.7367C196.993 53.2114 194.907 52.7736 192.774 52.3796C192.537 52.3358 192.3 52.292 192.016 52.2482C189.93 51.8542 187.703 51.5477 185.475 51.285C185.143 51.285 184.859 51.1975 184.527 51.1537C183.294 51.0224 182.062 50.891 180.782 50.8035C179.739 50.7159 178.697 50.6283 177.606 50.5846C177.227 50.5846 176.895 50.5408 176.516 50.5408C174.146 50.4094 171.681 50.3657 169.169 50.3219C168.98 50.3219 168.79 50.3219 168.553 50.3219C168.269 50.3219 167.937 50.3219 167.652 50.3219C166.467 50.3219 165.235 50.3219 164.003 50.3657C163.434 50.3657 162.865 50.3657 162.296 50.4094C160.495 50.497 158.646 50.5846 156.798 50.7159C156.798 50.7159 156.845 50.6283 156.893 50.5846C156.893 50.5846 156.94 50.497 156.987 50.497C157.082 50.3657 157.224 50.1905 157.414 49.9716C157.604 49.7527 157.841 49.49 158.078 49.2274C158.125 49.1398 158.22 49.096 158.267 49.0085C158.504 48.7458 158.789 48.4831 159.073 48.1766C159.12 48.1329 159.215 48.0453 159.263 48.0015L159.357 47.9139C159.689 47.5637 160.068 47.2135 160.495 46.8194C160.59 46.7319 160.685 46.6443 160.779 46.5568C161.253 46.1189 161.727 45.6811 162.249 45.1996C162.296 45.1558 162.391 45.0682 162.486 45.0244C162.96 44.5866 163.481 44.1488 164.05 43.711C164.192 43.6235 164.287 43.4921 164.429 43.4046C165.045 42.923 165.709 42.3976 166.42 41.916C166.515 41.8285 166.657 41.7409 166.799 41.6533C167.415 41.2155 168.079 40.7777 168.743 40.3399C168.885 40.2524 169.027 40.1648 169.169 40.0772C169.928 39.5957 170.733 39.1141 171.587 38.6325C171.729 38.5449 171.918 38.4574 172.108 38.3698C172.866 37.9758 173.625 37.5818 174.478 37.1877C174.62 37.1002 174.81 37.0126 174.952 36.9688C175.853 36.531 176.801 36.137 177.796 35.7867C178.033 35.6992 178.223 35.6116 178.46 35.5678C179.36 35.2614 180.261 34.9549 181.209 34.6485C181.351 34.6047 181.541 34.5609 181.683 34.5171C182.726 34.2107 183.816 33.948 184.953 33.7291C185.238 33.6853 185.475 33.6415 185.759 33.5977C186.802 33.4226 187.845 33.2475 188.935 33.1161C189.077 33.1161 189.172 33.1161 189.314 33.0724C190.499 32.941 191.732 32.8972 192.964 32.8972C193.391 32.8972 193.817 32.8972 194.244 32.8972C194.67 32.8972 195.097 32.8972 195.524 32.8972C196.045 32.8972 196.566 32.941 197.088 32.9848C197.514 32.9848 197.941 33.0724 198.368 33.1161C198.889 33.1599 199.458 33.2475 199.979 33.335C200.406 33.3788 200.832 33.4664 201.259 33.5539C201.828 33.6415 202.397 33.7728 202.965 33.9042C203.392 33.9918 203.819 34.0793 204.245 34.1669C204.814 34.2982 205.43 34.4733 206.046 34.6485C206.473 34.7798 206.9 34.8674 207.326 34.9987C207.942 35.1738 208.606 35.4365 209.222 35.6554C209.649 35.7868 210.028 35.9181 210.455 36.0932C211.166 36.3559 211.877 36.6624 212.588 36.9688C212.967 37.1439 213.299 37.2753 213.678 37.4066C214.768 37.8882 215.858 38.4136 216.996 39.0265C216.996 39.0265 216.996 39.0265 216.996 38.9389C216.996 38.8952 216.996 38.8076 216.948 38.7638C216.948 38.7638 216.948 38.7638 216.948 38.72C216.948 38.6325 216.901 38.5449 216.854 38.4574C216.854 38.4574 216.854 38.4136 216.854 38.3698C216.806 38.2385 216.759 38.0633 216.664 37.8882C216.617 37.7131 216.522 37.538 216.427 37.3191C216.427 37.3191 216.427 37.2315 216.38 37.1877C216.285 37.0126 216.237 36.8375 216.143 36.6186C216.143 36.5748 216.143 36.531 216.095 36.4435C216 36.1808 215.858 35.9619 215.763 35.6554C215.621 35.3489 215.479 35.0425 215.337 34.736C215.195 34.4296 215.052 34.1231 214.863 33.8166C214.863 33.7728 214.815 33.7291 214.768 33.6415C214.626 33.335 214.484 33.0724 214.294 32.7659C214.294 32.7221 214.247 32.6783 214.199 32.6346C213.82 31.8903 213.393 31.146 212.919 30.358C212.919 30.358 212.872 30.2704 212.825 30.2266C212.635 29.8764 212.398 29.5261 212.161 29.1759C212.161 29.0883 212.066 29.0446 212.019 28.957C211.782 28.6067 211.545 28.2127 211.308 27.8625C211.308 27.8625 211.308 27.7749 211.26 27.7749C210.692 26.9431 210.075 26.1113 209.459 25.2794C209.412 25.2357 209.364 25.1481 209.317 25.1043C209.033 24.7541 208.748 24.4038 208.464 24.0536C208.416 23.966 208.322 23.9222 208.274 23.8347C207.942 23.4407 207.611 23.0466 207.231 22.6526C206.852 22.2148 206.473 21.8208 206.046 21.383C206.046 21.383 206.046 21.383 205.999 21.3392C205.62 20.9452 205.241 20.5949 204.861 20.2447C204.767 20.1571 204.719 20.1133 204.624 20.0258C204.293 19.7193 203.913 19.4128 203.582 19.1064C203.487 19.0188 203.439 18.975 203.345 18.8875C202.444 18.1432 201.543 17.4427 200.548 16.7422C200.453 16.6985 200.406 16.6547 200.311 16.5671C199.932 16.3044 199.505 16.0418 199.079 15.7791C198.936 15.6915 198.842 15.6477 198.699 15.5602C198.273 15.2975 197.894 15.0786 197.467 14.8597C197.372 14.8159 197.23 14.7283 197.135 14.6846C196.092 14.1154 194.955 13.6338 193.817 13.196C193.675 13.1522 193.533 13.1085 193.343 13.0209C192.917 12.8458 192.443 12.7144 192.016 12.5831C191.826 12.5393 191.684 12.4955 191.495 12.408C191.021 12.2766 190.499 12.1453 190.025 12.0139C189.883 12.0139 189.788 11.9702 189.646 11.9264C189.03 11.795 188.366 11.6637 187.703 11.5761C187.56 11.5761 187.466 11.5761 187.323 11.5324C186.802 11.4448 186.281 11.401 185.712 11.3572C185.475 11.3572 185.285 11.3572 185.048 11.3572C184.574 11.3572 184.1 11.3135 183.579 11.3135C183.342 11.3135 183.152 11.3135 182.915 11.3135C182.109 11.3135 181.351 11.3135 180.498 11.401C180.356 11.401 180.213 11.401 180.071 11.401C179.36 11.4448 178.649 11.5324 177.938 11.6637C177.701 11.6637 177.464 11.7513 177.227 11.795C176.374 11.9264 175.521 12.1015 174.62 12.3204C174.525 12.3204 174.431 12.3642 174.336 12.408C173.53 12.5831 172.677 12.8458 171.871 13.1085C171.587 13.196 171.35 13.2836 171.065 13.3711C170.259 13.6338 169.406 13.9403 168.553 14.2468C168.411 14.2905 168.316 14.3343 168.174 14.3781C167.226 14.7283 166.278 15.1661 165.282 15.6039C164.998 15.7353 164.714 15.8666 164.382 15.998C163.576 16.392 162.723 16.786 161.87 17.2238C161.68 17.3552 161.443 17.4427 161.253 17.5303C160.258 18.0557 159.215 18.6686 158.125 19.2815C157.841 19.4566 157.509 19.6318 157.224 19.8507C156.371 20.376 155.471 20.9452 154.617 21.5143C154.333 21.6894 154.096 21.8646 153.812 22.0397C152.721 22.7839 151.584 23.572 150.446 24.4038C150.162 24.6227 149.877 24.8416 149.593 25.0605C148.645 25.761 147.697 26.5053 146.749 27.2496C146.417 27.5122 146.133 27.7311 145.801 27.9938C144.616 28.957 143.431 29.9639 142.199 31.0585C141.962 31.2774 141.677 31.4963 141.44 31.7152C140.397 32.6346 139.355 33.5977 138.312 34.5609C137.98 34.8674 137.648 35.1738 137.269 35.5241C135.989 36.7499 134.709 38.0196 133.382 39.333C133.24 39.5081 133.05 39.6832 132.908 39.8583C131.723 41.0404 130.491 42.31 129.306 43.6235C128.927 44.0175 128.595 44.4115 128.216 44.8055C126.841 46.2941 125.419 47.8264 123.997 49.4463C123.997 49.4463 123.997 49.4025 123.997 49.3149C123.997 49.3149 123.997 49.2274 123.997 49.1836C123.997 49.096 123.997 49.0085 123.997 48.8771C123.997 48.7896 123.997 48.7458 123.997 48.6582C123.997 48.5269 123.997 48.3517 123.997 48.2204C123.997 48.1328 123.997 48.0015 123.997 47.9139C123.997 47.7388 123.997 47.5199 123.95 47.2572C123.95 47.1259 123.95 47.0383 123.95 46.907C123.95 46.5568 123.855 46.1627 123.807 45.7687C123.807 45.6811 123.807 45.5498 123.807 45.4622C123.807 45.112 123.713 44.7617 123.665 44.4115C123.665 44.2364 123.618 44.0613 123.57 43.8861C123.523 43.5797 123.428 43.2294 123.381 42.923C123.381 42.7041 123.286 42.4852 123.239 42.2663C123.144 41.916 123.096 41.5658 123.002 41.2155C122.954 40.9966 122.907 40.7777 122.812 40.515C122.717 40.121 122.575 39.6832 122.433 39.2454C122.385 39.0703 122.338 38.8952 122.291 38.72C122.101 38.1071 121.864 37.4942 121.627 36.8813C121.532 36.6624 121.437 36.4872 121.39 36.2683C121.2 35.8305 121.011 35.3489 120.821 34.9111C120.726 34.6485 120.584 34.3858 120.442 34.1231C120.252 33.7291 120.063 33.2913 119.826 32.8535C119.684 32.5908 119.541 32.2843 119.399 32.0216C119.162 31.5838 118.925 31.146 118.641 30.7082C118.499 30.4455 118.356 30.1828 118.167 29.9202C117.788 29.351 117.408 28.7819 116.982 28.2127C116.887 28.0814 116.84 27.95 116.745 27.8625C116.271 27.2058 115.702 26.5053 115.133 25.8486C114.944 25.6297 114.707 25.4108 114.517 25.1481C114.138 24.7103 113.711 24.2725 113.285 23.8347C113.048 23.572 112.763 23.3093 112.479 23.0904C112.052 22.6964 111.626 22.2586 111.152 21.8646C110.867 21.6019 110.583 21.383 110.298 21.1203C109.777 20.6825 109.256 20.2885 108.687 19.8944C108.402 19.6755 108.165 19.5004 107.881 19.2815C107.028 18.7124 106.175 18.1432 105.227 17.5741C105.037 17.4865 104.847 17.3989 104.705 17.2676C103.899 16.8298 103.094 16.392 102.24 15.9542C101.861 15.7791 101.482 15.6039 101.103 15.4288C100.392 15.1224 99.6808 14.7721 98.9224 14.5094C98.4958 14.3343 98.0218 14.1592 97.5952 13.9841C96.8368 13.7214 96.031 13.4587 95.2252 13.196C94.7512 13.0647 94.3246 12.8896 93.8506 12.7582C92.9026 12.4955 91.9072 12.2328 90.8644 11.9702C90.4852 11.8826 90.1534 11.795 89.7742 11.7075C88.3522 11.401 86.9302 11.1383 85.4134 10.9194C85.0342 10.8757 84.6076 10.8319 84.2284 10.7881C83.0434 10.613 81.8584 10.4816 80.626 10.3941C80.0572 10.3503 79.441 10.3065 78.8248 10.2627C77.6872 10.1752 76.5496 10.1314 75.412 10.0876C74.7484 10.0876 74.0848 10.0876 73.4212 10.0438C71.9992 10.0438 70.5298 10.0438 69.013 10.0438C68.6812 10.0438 68.3968 10.0438 68.065 10.0438C66.2164 10.1314 64.273 10.2189 62.2348 10.3941C61.7134 10.3941 61.2394 10.4816 60.718 10.5254C59.059 10.6568 57.4 10.8757 55.6462 11.0946C55.1248 11.1821 54.6034 11.2259 54.082 11.3135C51.9016 11.6199 49.6738 11.9702 47.3512 12.3642C46.9246 12.4518 46.498 12.5393 46.0714 12.5831C44.128 12.9333 42.0898 13.3274 40.0042 13.7652C39.3406 13.8965 38.677 14.0716 37.966 14.203C35.4538 14.7721 32.8942 15.385 30.2398 16.0418C30.2398 16.0418 97.216 24.8854 89.7268 47.7388C89.7268 47.7388 89.7268 47.7388 89.6794 47.7388C89.6794 47.7388 89.5372 47.7388 89.4424 47.7388C89.395 47.7388 89.2528 47.7388 89.158 47.7388C89.0632 47.7388 88.921 47.7388 88.7788 47.7388C88.6366 47.7388 88.4944 47.7388 88.3048 47.7388C88.1152 47.7388 87.9256 47.7388 87.736 47.7388C87.5464 47.7388 87.3094 47.7388 87.1198 47.7388C86.8828 47.7388 86.6458 47.7388 86.4088 47.7826C86.1718 47.7826 85.8874 47.8264 85.603 47.8702C85.3186 47.8702 85.0342 47.9139 84.7024 47.9577C84.418 47.9577 84.0862 48.0453 83.7544 48.0453C83.4226 48.0453 83.0908 48.1329 82.759 48.1766C82.4272 48.1766 82.0006 48.2642 81.6688 48.308C81.2896 48.3517 80.9578 48.3955 80.5312 48.4831C80.152 48.5269 79.7254 48.6144 79.2988 48.702C78.8722 48.7896 78.493 48.8333 78.0664 48.9209C77.6398 49.0085 77.1658 49.096 76.7392 49.1836C76.3126 49.2711 75.8386 49.3587 75.3646 49.4463C74.8906 49.5338 74.4166 49.6652 73.9426 49.7527C73.4686 49.8403 72.9946 49.9716 72.4732 50.103C71.9518 50.2343 71.4304 50.3657 70.9564 50.497C70.435 50.6283 69.961 50.7597 69.4396 50.891C68.9182 51.0224 68.3494 51.1975 67.828 51.3726C67.3066 51.5477 66.7852 51.6791 66.2638 51.8542C65.695 52.0293 65.1736 52.2482 64.6048 52.4233C64.036 52.5985 63.5146 52.7736 62.9458 52.9925C62.377 53.2114 61.8082 53.4303 61.192 53.6492C60.6232 53.8681 60.0544 54.087 59.533 54.3059C58.9642 54.5248 58.348 54.8313 57.7792 55.0502C57.2104 55.3128 56.6416 55.5317 56.0728 55.7944C55.4566 56.0571 54.8878 56.3636 54.2716 56.67C53.7028 56.9765 53.134 57.2392 52.5178 57.5457C51.9016 57.8521 51.3328 58.2024 50.7166 58.5526C50.1478 58.8591 49.579 59.1655 48.9628 59.5158C48.3466 59.866 47.7778 60.26 47.1616 60.6541C46.5928 61.0043 46.024 61.3546 45.4078 61.7486C44.7916 62.1426 44.2228 62.5804 43.6066 63.0182C43.0378 63.4122 42.469 63.8063 41.9002 64.2441C41.284 64.6819 40.7152 65.1635 40.099 65.645C39.5302 66.0828 38.9614 66.5207 38.44 67.0022C37.8712 67.4838 37.255 68.053 36.6862 68.5783C36.1648 69.0599 35.596 69.5415 35.0746 70.0669C34.5058 70.636 33.937 71.2052 33.3682 71.7743C32.8468 72.2997 32.3254 72.825 31.804 73.3942C31.2352 74.0071 30.7138 74.6638 30.145 75.2767C29.6236 75.8459 29.1496 76.415 28.6282 77.028C28.1068 77.6847 27.5854 78.4289 27.064 79.1294C26.59 79.7861 26.116 80.3553 25.642 81.0558C25.1206 81.8 24.6466 82.5881 24.1726 83.3324C23.746 84.0329 23.272 84.6896 22.8454 85.39C22.3714 86.1781 21.8974 87.0537 21.4708 87.8855C21.0442 88.6298 20.665 89.3303 20.2384 90.0746C19.8118 90.9502 19.3852 91.9133 18.9586 92.7889C18.5794 93.577 18.2002 94.3213 17.8684 95.1093C17.4418 96.0725 17.0626 97.1232 16.6834 98.1302C16.3516 98.962 16.0198 99.75 15.7354 100.582C15.3562 101.633 15.0244 102.771 14.6926 103.909C14.4082 104.741 14.1238 105.573 13.8868 106.448C13.555 107.674 13.2706 108.944 12.9388 110.214C12.7492 111.045 12.5122 111.877 12.3226 112.709C11.9908 114.154 11.7538 115.686 11.5168 117.218C11.3746 117.963 11.2324 118.663 11.1376 119.407C10.8058 121.728 10.474 124.136 10.2844 126.587C10.2844 126.587 10.2844 126.587 10.2844 126.5C10.2844 126.5 10.2844 126.456 10.3792 126.369C10.4266 126.281 10.5214 126.15 10.6162 126.018C10.6162 126.018 10.6636 125.931 10.711 125.931C10.8532 125.756 10.9954 125.537 11.185 125.274C11.3746 125.011 11.5642 124.749 11.8012 124.442C11.8486 124.355 11.896 124.311 11.9434 124.267C12.1804 123.961 12.4174 123.61 12.7018 123.216C12.7492 123.129 12.7966 123.085 12.844 122.997C13.1284 122.603 13.4602 122.166 13.792 121.728C13.792 121.684 13.8868 121.597 13.9342 121.553C14.266 121.115 14.5978 120.633 14.977 120.152C15.0244 120.108 15.0718 120.02 15.1192 119.977C15.4984 119.451 15.925 118.926 16.3516 118.357C16.4464 118.269 16.4938 118.138 16.5886 118.05C17.0152 117.481 17.4892 116.912 17.9632 116.299C18.0106 116.212 18.1054 116.124 18.1528 116.08C18.6268 115.467 19.1482 114.898 19.6696 114.241C19.717 114.198 19.7644 114.11 19.8118 114.066C20.3332 113.41 20.902 112.753 21.4708 112.096C21.5656 111.965 21.6604 111.833 21.8026 111.702C22.3714 111.045 22.9876 110.345 23.5564 109.644C23.6512 109.557 23.746 109.426 23.8408 109.294C24.457 108.594 25.1206 107.893 25.7842 107.149C25.7842 107.149 25.8316 107.105 25.879 107.061C26.5426 106.317 27.2536 105.573 27.9172 104.829C28.0594 104.697 28.1542 104.566 28.2964 104.435C28.96 103.69 29.671 102.99 30.382 102.246C30.5242 102.114 30.619 101.983 30.7612 101.852C32.278 100.319 33.8422 98.7869 35.4538 97.2546C35.596 97.1232 35.7382 96.9919 35.8804 96.8605C36.6862 96.1163 37.492 95.4158 38.2978 94.6715C38.44 94.5402 38.5822 94.4088 38.7244 94.2775C39.5776 93.5332 40.4308 92.7889 41.284 92.0447C41.3314 92.0447 41.3788 91.9571 41.4262 91.9133C42.2794 91.2128 43.1326 90.5124 43.9858 89.8119C44.128 89.7243 44.2702 89.593 44.4124 89.5054C45.2656 88.8049 46.1662 88.1482 47.0668 87.4915C47.2564 87.3602 47.3986 87.2288 47.5882 87.0975C48.4888 86.4408 49.3894 85.7841 50.3374 85.1274C50.4322 85.0398 50.527 84.996 50.6218 84.9085C51.5224 84.2955 52.423 83.6826 53.3236 83.1135C53.4658 83.0259 53.5606 82.9383 53.7028 82.8508C54.6508 82.2378 55.5988 81.6687 56.5468 81.1433C56.7364 81.012 56.926 80.9244 57.1156 80.8369C58.0636 80.2677 59.059 79.7424 60.007 79.2608C60.1492 79.1732 60.2914 79.1294 60.4336 79.0419C61.3816 78.5603 62.3296 78.0787 63.2776 77.6409C63.3724 77.5971 63.4672 77.5533 63.6094 77.5096C64.6048 77.0718 65.6002 76.6339 66.5956 76.2399C66.7852 76.1524 66.9748 76.0648 67.1644 76.021C68.1598 75.627 69.1552 75.2767 70.1506 74.9703C70.3402 74.9265 70.4824 74.8827 70.672 74.7952C71.6674 74.4887 72.6628 74.1822 73.7056 73.9196C73.753 73.9196 73.8004 73.9196 73.8952 73.8758C74.938 73.6131 75.9808 73.3942 77.0236 73.2191C77.2132 73.2191 77.4028 73.1315 77.5924 73.1315C78.5878 72.9564 79.6306 72.825 80.626 72.7375C80.8156 72.7375 81.0052 72.7375 81.1948 72.6937C82.2376 72.6061 83.3278 72.5624 84.3706 72.5624C84.3706 72.5624 84.3706 72.5624 84.418 72.5624C85.1764 72.5624 85.9822 72.5624 86.7406 72.6499C86.9776 72.6499 87.262 72.6499 87.499 72.6937C88.0678 72.7375 88.5892 72.7813 89.158 72.8688C89.4424 72.8688 89.7268 72.9564 90.0112 73.0002C90.58 73.0877 91.1488 73.1753 91.6702 73.3066C91.9072 73.3504 92.1916 73.3942 92.4286 73.438C93.2344 73.6131 94.0402 73.7882 94.846 74.0509C94.846 74.0509 94.846 74.0509 94.8934 74.0509C95.6518 74.2698 96.4576 74.5325 97.216 74.839C97.453 74.9265 97.7374 75.0141 97.9744 75.1454C98.5432 75.3643 99.0646 75.5832 99.6334 75.8459C99.9178 75.9772 100.202 76.1086 100.487 76.2399C101.055 76.5026 101.577 76.7653 102.146 77.0717C102.383 77.2031 102.667 77.3344 102.904 77.4658C103.71 77.9036 104.468 78.3414 105.274 78.8668C105.274 78.8668 97.8796 86.8786 87.9256 102.114L86.2666 104.478C84.5602 106.755 80.6734 112.271 76.3126 120.414C75.649 121.684 74.938 122.997 74.2744 124.355C71.857 129.171 69.3922 134.731 67.117 140.904C65.8372 144.45 64.6048 148.171 63.4672 152.155C61.8082 158.066 60.3862 164.414 59.3908 171.156C59.059 173.389 58.7746 175.665 58.5376 178.03C58.4428 179.212 58.3006 180.35 58.2532 181.532C58.0636 183.896 57.9688 186.304 57.9214 188.756C57.874 191.208 57.9214 193.659 57.9214 196.198C58.0636 199.964 58.3006 203.816 58.7746 207.713C59.059 210.34 59.4382 212.966 59.9122 215.637C60.6232 219.665 61.5238 223.736 62.614 227.852C63.7042 231.967 65.0314 236.17 66.5956 240.417C67.117 241.818 67.6384 243.262 68.2072 244.663C69.3448 247.509 70.5772 250.399 71.9518 253.288C73.3264 256.178 74.7958 259.111 76.36 262.001C81.4792 271.413 87.8308 281.001 95.6044 290.677C87.6412 292.165 80.6734 295.712 74.6536 301.315C74.2744 301.666 73.99 302.016 73.6582 302.366C53.371 296.85 41.2366 290.502 41.2366 290.502C48.631 296.937 57.7792 303.198 68.3968 308.714C64.3678 314.8 62.2822 321.673 62.2822 329.379C62.2822 340.455 66.406 349.824 74.6536 357.486C82.9012 365.191 92.95 369.044 104.847 369.044C116.745 369.044 126.841 365.191 135.089 357.486C143.336 349.78 147.46 340.411 147.46 329.379C147.46 328.634 147.413 327.89 147.365 327.146H147.176ZM110.583 333.056C109.019 334.589 107.028 335.333 104.658 335.333C102.288 335.333 100.344 334.589 98.7802 333.056C97.216 331.524 96.4576 329.598 96.4576 327.321C96.4576 325.044 97.216 323.074 98.7802 321.586C99.0172 321.367 99.3016 321.192 99.5386 320.973C100.961 319.878 102.667 319.309 104.658 319.309C107.075 319.309 109.019 320.053 110.583 321.586C111.294 322.286 111.815 323.074 112.242 323.95C112.716 324.957 112.953 326.095 112.953 327.365C112.953 329.685 112.194 331.612 110.63 333.1L110.583 333.056Z" fill="white"/>
<path d="M250.081 168.967C246.147 167.084 241.691 166.034 236.951 166.034C221.025 166.034 208.132 177.942 208.132 192.652C208.132 196.549 209.08 200.226 210.692 203.554C213.394 209.07 218.039 213.579 223.822 216.337C227.756 218.22 232.211 219.271 236.951 219.271C252.878 219.271 265.771 207.362 265.771 192.652C265.771 188.756 264.823 185.078 263.211 181.751C260.509 176.234 255.864 171.725 250.081 168.967ZM236.951 204.998C234.771 204.998 232.685 204.473 230.884 203.597C228.182 202.328 226.049 200.27 224.77 197.687C224.011 196.155 223.585 194.447 223.585 192.608C223.585 185.779 229.557 180.262 236.951 180.262C239.132 180.262 241.217 180.788 243.019 181.663C245.72 182.933 247.853 184.991 249.133 187.574C249.892 189.106 250.318 190.813 250.318 192.652C250.318 199.482 244.346 204.998 236.951 204.998Z" fill="white"/>
<path d="M251.693 92.6138C252.83 94.9341 253.778 97.2983 254.632 99.5749V99.6624V99.75C260.888 116.693 260.272 131.403 260.225 132.366L259.798 141.166L255.058 133.505C245.389 117.963 229.841 107.499 214.389 100.538C210.881 98.9619 207.421 97.561 204.008 96.3351C197.42 98.2614 191.116 100.713 185.143 103.69C186.186 105.792 187.039 107.849 187.703 109.863C196.187 135.475 177.085 156.008 176.801 156.271L166.468 167.084L172.156 153.644C175.094 146.726 172.724 135.781 166.42 124.311C165.33 122.341 164.192 120.371 162.865 118.4C141.156 136.876 127.552 163.319 127.552 192.74C127.552 239.016 161.254 277.98 207.184 289.932C210.36 288.707 213.583 287.393 216.854 285.992L219.082 285.029C219.982 284.635 220.883 284.285 221.783 283.847C254.916 268.568 285.299 259.768 312.602 256.046H313.028C316.441 255.521 319.759 255.171 323.077 254.864C337.582 237.746 346.208 216.206 346.208 192.74C346.208 141.604 305.018 99.356 251.598 92.7013L251.693 92.6138ZM268.235 179.649C270.179 183.633 271.269 188.011 271.269 192.652C271.269 210.164 255.911 224.349 236.951 224.349C231.311 224.349 226.002 223.08 221.309 220.847L190.357 276.667C190.357 276.667 190.168 276.579 190.12 276.536C188.509 275.748 186.897 274.916 185.333 274.084C184.574 273.646 183.769 273.252 183.01 272.814C181.588 271.982 180.214 271.151 178.839 270.275C178.033 269.75 177.275 269.224 176.469 268.699C175.379 267.955 174.336 267.21 173.293 266.466C160.637 257.141 150.399 245.145 143.668 231.31L205.62 205.567C203.677 201.583 202.586 197.205 202.586 192.565C202.586 175.052 217.944 160.868 236.904 160.868C242.545 160.868 247.853 162.137 252.546 164.37L283.546 108.506C286.058 109.688 288.523 111.002 290.94 112.403C291.13 112.49 291.319 112.621 291.509 112.753C293.642 113.979 295.68 115.292 297.718 116.693C298.145 116.999 298.524 117.262 298.951 117.569C300.799 118.882 302.6 120.239 304.354 121.64C304.639 121.859 304.923 122.122 305.207 122.341C307.198 124.004 309.142 125.712 310.99 127.507C312.317 128.776 313.55 130.09 314.782 131.403C320.992 138.145 326.206 145.676 330.14 153.819L268.188 179.562L268.235 179.649Z" fill="white"/>
<path d="M291.224 326.226C287.811 324.344 282.929 322.242 276.578 319.922C270.795 317.864 267.24 316.332 265.865 315.369C264.491 314.406 263.827 313.442 263.827 312.523C263.827 309.502 265.96 308.014 270.321 308.014C278.094 308.014 284.967 311.735 290.94 319.222L300.088 295.055C292.314 292.428 284.019 290.852 275.156 290.239C361.329 259.855 484 291.158 484 291.158C441.719 261.563 320.47 245.802 223.49 290.589C216.759 293.697 210.075 296.324 203.487 298.645L201.543 291.158H165.519L160.969 308.67L156.229 327.014L145.659 367.862H170.923L174.194 354.903H192.727L195.998 367.862H221.262L208.227 317.514C214.484 315.588 220.883 313.355 227.424 310.772C227.139 312.348 226.95 313.968 226.95 315.719C226.95 320.097 228.04 323.731 230.173 326.62C232.306 329.51 234.818 331.743 237.757 333.275C240.648 334.851 244.346 336.427 248.754 338.091C253.636 339.93 256.67 341.374 257.807 342.425C258.945 343.476 259.514 344.57 259.514 345.709C259.514 346.935 258.945 347.941 257.76 348.773C256.575 349.605 255.105 350.043 253.399 350.043C249.844 350.043 246.147 348.948 242.26 346.716C238.373 344.483 235.15 341.506 232.543 337.784L223.584 363.44C234.202 367.293 246.858 369.219 261.552 369.219C274.634 369.219 284.588 367.074 291.319 362.739C298.05 358.449 301.463 352.188 301.463 343.957C301.463 340.017 300.609 336.602 298.903 333.669C297.197 330.736 294.637 328.284 291.224 326.401V326.226ZM178.839 336.69L181.967 323.862L183.484 317.645L184.859 323.293L188.129 336.69H178.791H178.839Z" fill="white"/>
<path d="M348.625 291.071H311.89V367.774H348.625V291.071Z" fill="white"/>
<path d="M425.888 326.226C422.475 324.344 417.593 322.242 411.241 319.922C405.458 317.864 401.903 316.332 400.529 315.369C399.154 314.406 398.49 313.443 398.49 312.523C398.49 309.502 400.623 308.014 404.984 308.014C412.758 308.014 419.631 311.735 425.603 319.222L434.751 295.055C424.56 291.64 413.469 289.932 401.477 289.932C388.394 289.932 378.488 292.078 371.757 296.412C365.026 300.746 361.708 307.138 361.708 315.675C361.708 320.053 362.798 323.687 364.931 326.577C367.064 329.466 369.576 331.699 372.515 333.231C375.407 334.807 379.104 336.384 383.512 338.047C388.394 339.886 391.428 341.331 392.565 342.381C393.703 343.432 394.272 344.527 394.272 345.665C394.272 346.891 393.703 347.898 392.518 348.73C391.333 349.561 389.864 349.999 388.157 349.999C384.602 349.999 380.905 348.905 377.018 346.672C373.131 344.439 369.908 341.462 367.301 337.741L358.343 363.396C368.96 367.249 381.616 369.175 396.31 369.175C409.392 369.175 419.346 367.03 426.077 362.696C432.808 358.405 436.221 352.145 436.221 343.914C436.221 339.974 435.368 336.559 433.661 333.625C431.955 330.692 429.395 328.24 425.982 326.358L425.888 326.226Z" fill="white"/>
</g>
<path d="M89.4588 385.328H87.5923C87.5582 385.087 87.4886 384.872 87.3835 384.685C87.2784 384.494 87.1435 384.332 86.9787 384.199C86.8139 384.065 86.6236 383.963 86.4077 383.892C86.1946 383.821 85.9631 383.786 85.7131 383.786C85.2614 383.786 84.8679 383.898 84.5327 384.122C84.1974 384.344 83.9375 384.668 83.7528 385.094C83.5682 385.517 83.4759 386.031 83.4759 386.636C83.4759 387.259 83.5682 387.781 83.7528 388.205C83.9403 388.628 84.2017 388.947 84.5369 389.163C84.8722 389.379 85.2599 389.487 85.7003 389.487C85.9474 389.487 86.1761 389.455 86.3864 389.389C86.5994 389.324 86.7884 389.229 86.9531 389.104C87.1179 388.976 87.2543 388.821 87.3622 388.639C87.473 388.457 87.5497 388.25 87.5923 388.017L89.4588 388.026C89.4105 388.426 89.2898 388.812 89.0966 389.185C88.9063 389.554 88.6491 389.885 88.3253 390.178C88.0043 390.467 87.6207 390.697 87.1747 390.868C86.7315 391.036 86.2301 391.119 85.6705 391.119C84.892 391.119 84.196 390.943 83.5824 390.591C82.9716 390.239 82.4886 389.729 82.1335 389.061C81.7812 388.393 81.6051 387.585 81.6051 386.636C81.6051 385.685 81.7841 384.875 82.142 384.207C82.5 383.54 82.9858 383.031 83.5994 382.682C84.2131 382.33 84.9034 382.153 85.6705 382.153C86.1761 382.153 86.6449 382.224 87.0767 382.366C87.5114 382.509 87.8963 382.716 88.2315 382.989C88.5668 383.259 88.8395 383.589 89.0497 383.982C89.2628 384.374 89.3991 384.822 89.4588 385.328ZM93.7053 391.128C93.0433 391.128 92.4709 390.987 91.9879 390.706C91.5078 390.422 91.1371 390.027 90.8757 389.521C90.6143 389.013 90.4837 388.423 90.4837 387.753C90.4837 387.077 90.6143 386.486 90.8757 385.98C91.1371 385.472 91.5078 385.077 91.9879 384.795C92.4709 384.511 93.0433 384.369 93.7053 384.369C94.3672 384.369 94.9382 384.511 95.4183 384.795C95.9013 385.077 96.2734 385.472 96.5348 385.98C96.7962 386.486 96.9268 387.077 96.9268 387.753C96.9268 388.423 96.7962 389.013 96.5348 389.521C96.2734 390.027 95.9013 390.422 95.4183 390.706C94.9382 390.987 94.3672 391.128 93.7053 391.128ZM93.7138 389.722C94.0149 389.722 94.2663 389.636 94.468 389.466C94.6697 389.293 94.8217 389.057 94.924 388.759C95.0291 388.46 95.0817 388.121 95.0817 387.74C95.0817 387.359 95.0291 387.02 94.924 386.722C94.8217 386.423 94.6697 386.187 94.468 386.014C94.2663 385.841 94.0149 385.754 93.7138 385.754C93.4098 385.754 93.1541 385.841 92.9467 386.014C92.7422 386.187 92.5874 386.423 92.4822 386.722C92.38 387.02 92.3288 387.359 92.3288 387.74C92.3288 388.121 92.38 388.46 92.4822 388.759C92.5874 389.057 92.7422 389.293 92.9467 389.466C93.1541 389.636 93.4098 389.722 93.7138 389.722ZM98.1072 393.455V384.455H99.897V385.554H99.978C100.058 385.378 100.173 385.199 100.323 385.017C100.477 384.832 100.675 384.679 100.92 384.557C101.167 384.432 101.474 384.369 101.84 384.369C102.317 384.369 102.758 384.494 103.161 384.744C103.565 384.991 103.887 385.365 104.129 385.865C104.37 386.362 104.491 386.986 104.491 387.736C104.491 388.466 104.373 389.082 104.137 389.585C103.904 390.085 103.586 390.464 103.183 390.723C102.782 390.979 102.333 391.107 101.836 391.107C101.484 391.107 101.184 391.048 100.937 390.932C100.692 390.815 100.492 390.669 100.336 390.493C100.18 390.314 100.06 390.134 99.978 389.952H99.9226V393.455H98.1072ZM99.8842 387.727C99.8842 388.116 99.9382 388.456 100.046 388.746C100.154 389.036 100.31 389.261 100.515 389.423C100.719 389.582 100.968 389.662 101.261 389.662C101.556 389.662 101.806 389.581 102.011 389.419C102.215 389.254 102.37 389.027 102.475 388.737C102.583 388.445 102.637 388.108 102.637 387.727C102.637 387.349 102.585 387.017 102.479 386.73C102.374 386.443 102.219 386.219 102.015 386.057C101.81 385.895 101.559 385.814 101.261 385.814C100.965 385.814 100.715 385.892 100.511 386.048C100.309 386.205 100.154 386.426 100.046 386.713C99.9382 387 99.8842 387.338 99.8842 387.727ZM106.611 393.455C106.381 393.455 106.165 393.436 105.963 393.399C105.764 393.365 105.599 393.321 105.469 393.267L105.878 391.912C106.091 391.977 106.283 392.013 106.453 392.018C106.626 392.024 106.776 391.984 106.901 391.899C107.028 391.814 107.132 391.669 107.212 391.464L107.318 391.188L104.97 384.455H106.879L108.234 389.261H108.303L109.67 384.455H111.592L109.048 391.707C108.926 392.06 108.76 392.366 108.55 392.628C108.342 392.892 108.08 393.095 107.761 393.237C107.443 393.382 107.06 393.455 106.611 393.455ZM112.521 391V384.455H114.281V385.597H114.349C114.469 385.19 114.669 384.884 114.95 384.676C115.232 384.466 115.555 384.361 115.922 384.361C116.013 384.361 116.111 384.366 116.216 384.378C116.321 384.389 116.413 384.405 116.493 384.425V386.036C116.408 386.01 116.29 385.987 116.139 385.967C115.989 385.947 115.851 385.938 115.726 385.938C115.459 385.938 115.22 385.996 115.01 386.112C114.803 386.226 114.638 386.385 114.516 386.589C114.396 386.794 114.337 387.03 114.337 387.297V391H112.521ZM117.431 391V384.455H119.247V391H117.431ZM118.343 383.611C118.074 383.611 117.842 383.521 117.649 383.342C117.458 383.161 117.363 382.943 117.363 382.69C117.363 382.44 117.458 382.226 117.649 382.047C117.842 381.865 118.074 381.774 118.343 381.774C118.613 381.774 118.843 381.865 119.034 382.047C119.227 382.226 119.324 382.44 119.324 382.69C119.324 382.943 119.227 383.161 119.034 383.342C118.843 383.521 118.613 383.611 118.343 383.611ZM123.65 393.591C123.062 393.591 122.558 393.51 122.137 393.348C121.719 393.189 121.387 392.972 121.14 392.696C120.893 392.42 120.732 392.111 120.658 391.767L122.337 391.541C122.388 391.672 122.469 391.794 122.58 391.908C122.691 392.021 122.837 392.112 123.019 392.18C123.204 392.251 123.428 392.287 123.692 392.287C124.087 392.287 124.413 392.19 124.668 391.997C124.927 391.807 125.056 391.487 125.056 391.038V389.841H124.979C124.9 390.023 124.781 390.195 124.621 390.357C124.462 390.518 124.258 390.651 124.008 390.753C123.758 390.855 123.46 390.906 123.113 390.906C122.621 390.906 122.174 390.793 121.771 390.565C121.37 390.335 121.05 389.984 120.812 389.513C120.576 389.038 120.458 388.439 120.458 387.714C120.458 386.973 120.579 386.354 120.82 385.857C121.062 385.359 121.383 384.987 121.783 384.74C122.187 384.493 122.629 384.369 123.109 384.369C123.475 384.369 123.782 384.432 124.029 384.557C124.276 384.679 124.475 384.832 124.626 385.017C124.779 385.199 124.897 385.378 124.979 385.554H125.048V384.455H126.85V391.064C126.85 391.621 126.714 392.087 126.441 392.462C126.168 392.837 125.79 393.118 125.308 393.305C124.827 393.496 124.275 393.591 123.65 393.591ZM123.688 389.543C123.981 389.543 124.228 389.47 124.43 389.325C124.634 389.178 124.79 388.967 124.898 388.695C125.009 388.419 125.065 388.089 125.065 387.706C125.065 387.322 125.011 386.99 124.903 386.709C124.795 386.425 124.638 386.205 124.434 386.048C124.229 385.892 123.981 385.814 123.688 385.814C123.39 385.814 123.138 385.895 122.934 386.057C122.729 386.216 122.575 386.437 122.469 386.722C122.364 387.006 122.312 387.334 122.312 387.706C122.312 388.084 122.364 388.411 122.469 388.686C122.577 388.959 122.732 389.17 122.934 389.321C123.138 389.469 123.39 389.543 123.688 389.543ZM130.11 387.216V391H128.295V382.273H130.059V385.609H130.136C130.283 385.223 130.522 384.92 130.852 384.702C131.181 384.48 131.594 384.369 132.092 384.369C132.546 384.369 132.942 384.469 133.281 384.668C133.621 384.864 133.886 385.146 134.073 385.516C134.263 385.882 134.357 386.321 134.354 386.832V391H132.539V387.156C132.542 386.753 132.44 386.439 132.232 386.214C132.028 385.99 131.741 385.878 131.371 385.878C131.124 385.878 130.906 385.93 130.715 386.036C130.528 386.141 130.38 386.294 130.272 386.496C130.167 386.695 130.113 386.935 130.11 387.216ZM139.265 384.455V385.818H135.323V384.455H139.265ZM136.218 382.886H138.033V388.989C138.033 389.156 138.059 389.287 138.11 389.381C138.161 389.472 138.232 389.536 138.323 389.572C138.417 389.609 138.525 389.628 138.647 389.628C138.732 389.628 138.817 389.621 138.902 389.607C138.988 389.589 139.053 389.577 139.098 389.568L139.384 390.919C139.293 390.947 139.165 390.98 139 391.017C138.836 391.057 138.635 391.081 138.4 391.089C137.962 391.107 137.578 391.048 137.249 390.915C136.922 390.781 136.668 390.574 136.486 390.293C136.304 390.011 136.215 389.656 136.218 389.227V382.886ZM145.619 386.636C145.619 386.193 145.727 385.79 145.943 385.426C146.159 385.062 146.449 384.773 146.812 384.557C147.176 384.341 147.58 384.233 148.023 384.233C148.409 384.233 148.767 384.318 149.097 384.489C149.426 384.659 149.697 384.891 149.911 385.183C150.124 385.476 150.251 385.805 150.294 386.172H149.028C148.986 385.959 148.868 385.786 148.675 385.652C148.484 385.516 148.267 385.447 148.023 385.447C147.804 385.447 147.604 385.5 147.422 385.605C147.243 385.71 147.099 385.854 146.991 386.036C146.884 386.214 146.83 386.413 146.83 386.632C146.83 386.851 146.884 387.051 146.991 387.233C147.099 387.412 147.243 387.555 147.422 387.663C147.604 387.771 147.804 387.825 148.023 387.825C148.267 387.825 148.479 387.759 148.658 387.625C148.837 387.489 148.949 387.314 148.994 387.101H150.26C150.217 387.467 150.092 387.797 149.885 388.089C149.678 388.382 149.412 388.614 149.088 388.784C148.764 388.955 148.409 389.04 148.023 389.04C147.58 389.04 147.176 388.932 146.812 388.716C146.449 388.5 146.159 388.21 145.943 387.847C145.727 387.483 145.619 387.08 145.619 386.636ZM147.989 391.136C147.369 391.136 146.787 391.02 146.241 390.787C145.699 390.554 145.22 390.232 144.805 389.82C144.393 389.405 144.07 388.926 143.834 388.384C143.601 387.841 143.486 387.259 143.489 386.636C143.491 386.014 143.609 385.432 143.842 384.889C144.078 384.347 144.402 383.869 144.814 383.457C145.226 383.043 145.703 382.719 146.246 382.486C146.788 382.253 147.369 382.136 147.989 382.136C148.611 382.136 149.193 382.253 149.736 382.486C150.281 382.719 150.759 383.043 151.168 383.457C151.58 383.869 151.902 384.347 152.135 384.889C152.368 385.432 152.486 386.014 152.489 386.636C152.491 387.259 152.376 387.841 152.143 388.384C151.911 388.926 151.588 389.405 151.176 389.82C150.764 390.232 150.286 390.554 149.74 390.787C149.195 391.02 148.611 391.136 147.989 391.136ZM147.989 389.717C148.418 389.717 148.818 389.638 149.19 389.479C149.565 389.32 149.893 389.099 150.175 388.818C150.456 388.534 150.676 388.207 150.835 387.838C150.994 387.466 151.072 387.067 151.07 386.641C151.07 386.212 150.989 385.811 150.827 385.439C150.668 385.064 150.447 384.736 150.166 384.455C149.885 384.173 149.558 383.953 149.186 383.794C148.814 383.635 148.415 383.555 147.989 383.555C147.565 383.555 147.168 383.635 146.795 383.794C146.426 383.953 146.099 384.175 145.815 384.459C145.534 384.74 145.313 385.068 145.151 385.443C144.989 385.815 144.908 386.214 144.908 386.641C144.905 387.064 144.983 387.462 145.142 387.834C145.304 388.203 145.526 388.53 145.807 388.814C146.091 389.095 146.419 389.317 146.791 389.479C147.163 389.638 147.563 389.717 147.989 389.717ZM156.965 391V389.67L160.072 386.794C160.336 386.538 160.558 386.308 160.737 386.104C160.918 385.899 161.056 385.699 161.15 385.503C161.244 385.304 161.29 385.089 161.29 384.859C161.29 384.604 161.232 384.384 161.116 384.199C160.999 384.011 160.84 383.868 160.638 383.768C160.437 383.666 160.208 383.615 159.952 383.615C159.685 383.615 159.452 383.669 159.254 383.777C159.055 383.885 158.901 384.04 158.793 384.241C158.685 384.443 158.631 384.683 158.631 384.962H156.88C156.88 384.391 157.009 383.895 157.268 383.474C157.526 383.054 157.888 382.729 158.354 382.499C158.82 382.268 159.357 382.153 159.965 382.153C160.59 382.153 161.134 382.264 161.597 382.486C162.063 382.705 162.425 383.009 162.684 383.398C162.942 383.787 163.072 384.233 163.072 384.736C163.072 385.065 163.006 385.391 162.876 385.712C162.748 386.033 162.519 386.389 162.19 386.781C161.86 387.17 161.396 387.638 160.796 388.183L159.522 389.432V389.491H163.187V391H156.965ZM167.946 391.192C167.213 391.189 166.582 391.009 166.054 390.651C165.528 390.293 165.123 389.774 164.839 389.095C164.558 388.416 164.419 387.599 164.422 386.645C164.422 385.693 164.562 384.882 164.843 384.212C165.127 383.541 165.532 383.031 166.058 382.682C166.586 382.33 167.216 382.153 167.946 382.153C168.676 382.153 169.304 382.33 169.829 382.682C170.358 383.034 170.764 383.545 171.048 384.216C171.332 384.884 171.473 385.693 171.47 386.645C171.47 387.602 171.328 388.42 171.044 389.099C170.762 389.778 170.359 390.297 169.833 390.655C169.308 391.013 168.679 391.192 167.946 391.192ZM167.946 389.662C168.446 389.662 168.845 389.411 169.143 388.908C169.441 388.405 169.589 387.651 169.586 386.645C169.586 385.983 169.518 385.432 169.382 384.991C169.248 384.551 169.058 384.22 168.811 383.999C168.566 383.777 168.278 383.666 167.946 383.666C167.449 383.666 167.051 383.915 166.752 384.412C166.454 384.909 166.304 385.653 166.301 386.645C166.301 387.315 166.368 387.875 166.501 388.324C166.637 388.77 166.829 389.105 167.076 389.33C167.324 389.551 167.613 389.662 167.946 389.662ZM172.786 391V389.67L175.892 386.794C176.156 386.538 176.378 386.308 176.557 386.104C176.739 385.899 176.876 385.699 176.97 385.503C177.064 385.304 177.111 385.089 177.111 384.859C177.111 384.604 177.053 384.384 176.936 384.199C176.82 384.011 176.661 383.868 176.459 383.768C176.257 383.666 176.028 383.615 175.773 383.615C175.506 383.615 175.273 383.669 175.074 383.777C174.875 383.885 174.722 384.04 174.614 384.241C174.506 384.443 174.452 384.683 174.452 384.962H172.7C172.7 384.391 172.83 383.895 173.088 383.474C173.347 383.054 173.709 382.729 174.175 382.499C174.641 382.268 175.178 382.153 175.786 382.153C176.411 382.153 176.955 382.264 177.418 382.486C177.884 382.705 178.246 383.009 178.504 383.398C178.763 383.787 178.892 384.233 178.892 384.736C178.892 385.065 178.827 385.391 178.696 385.712C178.568 386.033 178.339 386.389 178.01 386.781C177.68 387.17 177.216 387.638 176.616 388.183L175.342 389.432V389.491H179.007V391H172.786ZM183.57 391.119C182.934 391.119 182.367 391.01 181.87 390.791C181.375 390.57 180.985 390.266 180.698 389.879C180.414 389.49 180.267 389.041 180.259 388.533H182.117C182.128 388.746 182.198 388.933 182.326 389.095C182.456 389.254 182.63 389.378 182.846 389.466C183.061 389.554 183.304 389.598 183.574 389.598C183.855 389.598 184.104 389.548 184.32 389.449C184.536 389.349 184.705 389.212 184.827 389.036C184.949 388.859 185.01 388.656 185.01 388.426C185.01 388.193 184.945 387.987 184.814 387.808C184.686 387.626 184.502 387.484 184.26 387.382C184.022 387.28 183.738 387.229 183.408 387.229H182.594V385.874H183.408C183.686 385.874 183.932 385.825 184.145 385.729C184.361 385.632 184.529 385.499 184.648 385.328C184.767 385.155 184.827 384.953 184.827 384.723C184.827 384.504 184.775 384.312 184.669 384.148C184.567 383.98 184.422 383.849 184.235 383.756C184.05 383.662 183.834 383.615 183.587 383.615C183.337 383.615 183.108 383.661 182.901 383.751C182.694 383.839 182.527 383.966 182.402 384.131C182.277 384.295 182.211 384.489 182.202 384.71H180.434C180.442 384.207 180.586 383.764 180.864 383.381C181.142 382.997 181.517 382.697 181.989 382.482C182.463 382.263 182.999 382.153 183.596 382.153C184.198 382.153 184.725 382.263 185.176 382.482C185.628 382.7 185.979 382.996 186.229 383.368C186.482 383.737 186.607 384.152 186.604 384.612C186.607 385.101 186.455 385.509 186.148 385.835C185.844 386.162 185.448 386.369 184.959 386.457V386.526C185.601 386.608 186.09 386.831 186.425 387.195C186.763 387.555 186.931 388.007 186.928 388.55C186.931 389.047 186.787 389.489 186.498 389.875C186.211 390.261 185.814 390.565 185.309 390.787C184.803 391.009 184.223 391.119 183.57 391.119ZM199.103 386.636C199.103 387.588 198.922 388.398 198.561 389.065C198.203 389.733 197.715 390.243 197.096 390.595C196.479 390.945 195.786 391.119 195.016 391.119C194.24 391.119 193.544 390.943 192.928 390.591C192.311 390.239 191.824 389.729 191.466 389.061C191.108 388.393 190.929 387.585 190.929 386.636C190.929 385.685 191.108 384.875 191.466 384.207C191.824 383.54 192.311 383.031 192.928 382.682C193.544 382.33 194.24 382.153 195.016 382.153C195.786 382.153 196.479 382.33 197.096 382.682C197.715 383.031 198.203 383.54 198.561 384.207C198.922 384.875 199.103 385.685 199.103 386.636ZM197.232 386.636C197.232 386.02 197.14 385.5 196.955 385.077C196.773 384.653 196.516 384.332 196.184 384.114C195.851 383.895 195.462 383.786 195.016 383.786C194.57 383.786 194.181 383.895 193.848 384.114C193.516 384.332 193.257 384.653 193.073 385.077C192.891 385.5 192.8 386.02 192.8 386.636C192.8 387.253 192.891 387.773 193.073 388.196C193.257 388.619 193.516 388.94 193.848 389.159C194.181 389.378 194.57 389.487 195.016 389.487C195.462 389.487 195.851 389.378 196.184 389.159C196.516 388.94 196.773 388.619 196.955 388.196C197.14 387.773 197.232 387.253 197.232 386.636ZM202.302 391.124C201.884 391.124 201.512 391.051 201.185 390.906C200.859 390.759 200.6 390.541 200.41 390.254C200.222 389.964 200.129 389.604 200.129 389.172C200.129 388.808 200.195 388.503 200.329 388.256C200.462 388.009 200.644 387.81 200.874 387.659C201.104 387.509 201.366 387.395 201.658 387.318C201.954 387.241 202.263 387.188 202.587 387.156C202.968 387.116 203.275 387.08 203.508 387.045C203.741 387.009 203.91 386.955 204.015 386.884C204.12 386.812 204.173 386.707 204.173 386.568V386.543C204.173 386.273 204.087 386.064 203.917 385.916C203.749 385.768 203.511 385.695 203.201 385.695C202.874 385.695 202.614 385.767 202.421 385.912C202.228 386.054 202.1 386.233 202.038 386.449L200.359 386.312C200.444 385.915 200.612 385.571 200.862 385.281C201.112 384.989 201.434 384.764 201.829 384.608C202.227 384.449 202.687 384.369 203.21 384.369C203.573 384.369 203.921 384.412 204.254 384.497C204.589 384.582 204.886 384.714 205.144 384.893C205.406 385.072 205.612 385.303 205.762 385.584C205.913 385.862 205.988 386.196 205.988 386.585V391H204.266V390.092H204.215C204.11 390.297 203.969 390.477 203.793 390.634C203.617 390.787 203.406 390.908 203.158 390.996C202.911 391.081 202.626 391.124 202.302 391.124ZM202.822 389.871C203.089 389.871 203.325 389.818 203.529 389.713C203.734 389.605 203.894 389.46 204.011 389.278C204.127 389.097 204.185 388.891 204.185 388.661V387.966C204.129 388.003 204.05 388.037 203.951 388.068C203.854 388.097 203.745 388.124 203.623 388.149C203.501 388.172 203.379 388.193 203.256 388.213C203.134 388.23 203.023 388.246 202.924 388.26C202.711 388.291 202.525 388.341 202.366 388.409C202.207 388.477 202.083 388.57 201.995 388.686C201.907 388.8 201.863 388.942 201.863 389.112C201.863 389.359 201.952 389.548 202.131 389.679C202.313 389.807 202.543 389.871 202.822 389.871ZM212.842 386.321L211.18 386.423C211.152 386.281 211.091 386.153 210.997 386.04C210.903 385.923 210.78 385.831 210.626 385.763C210.476 385.692 210.295 385.656 210.085 385.656C209.804 385.656 209.567 385.716 209.374 385.835C209.18 385.952 209.084 386.108 209.084 386.304C209.084 386.46 209.146 386.592 209.271 386.7C209.396 386.808 209.611 386.895 209.915 386.96L211.099 387.199C211.736 387.33 212.21 387.54 212.523 387.83C212.835 388.119 212.991 388.5 212.991 388.972C212.991 389.401 212.865 389.777 212.612 390.101C212.362 390.425 212.018 390.678 211.581 390.859C211.146 391.038 210.645 391.128 210.077 391.128C209.21 391.128 208.52 390.947 208.006 390.587C207.494 390.223 207.195 389.729 207.107 389.104L208.892 389.01C208.946 389.274 209.077 389.476 209.284 389.615C209.491 389.751 209.757 389.82 210.081 389.82C210.399 389.82 210.655 389.759 210.848 389.636C211.044 389.511 211.143 389.351 211.146 389.155C211.143 388.99 211.074 388.855 210.938 388.75C210.801 388.642 210.591 388.56 210.307 388.503L209.173 388.277C208.534 388.149 208.058 387.928 207.746 387.612C207.436 387.297 207.281 386.895 207.281 386.406C207.281 385.986 207.395 385.624 207.622 385.32C207.852 385.016 208.175 384.781 208.589 384.616C209.007 384.452 209.496 384.369 210.055 384.369C210.882 384.369 211.533 384.544 212.007 384.893C212.484 385.243 212.763 385.719 212.842 386.321ZM214.135 391V384.455H215.95V391H214.135ZM215.047 383.611C214.777 383.611 214.545 383.521 214.352 383.342C214.162 383.161 214.066 382.943 214.066 382.69C214.066 382.44 214.162 382.226 214.352 382.047C214.545 381.865 214.777 381.774 215.047 381.774C215.316 381.774 215.547 381.865 215.737 382.047C215.93 382.226 216.027 382.44 216.027 382.69C216.027 382.943 215.93 383.161 215.737 383.342C215.547 383.521 215.316 383.611 215.047 383.611ZM222.85 386.321L221.188 386.423C221.16 386.281 221.099 386.153 221.005 386.04C220.911 385.923 220.788 385.831 220.634 385.763C220.484 385.692 220.303 385.656 220.093 385.656C219.812 385.656 219.575 385.716 219.381 385.835C219.188 385.952 219.092 386.108 219.092 386.304C219.092 386.46 219.154 386.592 219.279 386.7C219.404 386.808 219.619 386.895 219.923 386.96L221.107 387.199C221.744 387.33 222.218 387.54 222.531 387.83C222.843 388.119 222.999 388.5 222.999 388.972C222.999 389.401 222.873 389.777 222.62 390.101C222.37 390.425 222.026 390.678 221.589 390.859C221.154 391.038 220.653 391.128 220.085 391.128C219.218 391.128 218.528 390.947 218.013 390.587C217.502 390.223 217.202 389.729 217.114 389.104L218.9 389.01C218.954 389.274 219.085 389.476 219.292 389.615C219.499 389.751 219.765 389.82 220.089 389.82C220.407 389.82 220.663 389.759 220.856 389.636C221.052 389.511 221.151 389.351 221.154 389.155C221.151 388.99 221.082 388.855 220.945 388.75C220.809 388.642 220.599 388.56 220.315 388.503L219.181 388.277C218.542 388.149 218.066 387.928 217.754 387.612C217.444 387.297 217.289 386.895 217.289 386.406C217.289 385.986 217.403 385.624 217.63 385.32C217.86 385.016 218.183 384.781 218.597 384.616C219.015 384.452 219.504 384.369 220.063 384.369C220.89 384.369 221.54 384.544 222.015 384.893C222.492 385.243 222.771 385.719 222.85 386.321ZM228.221 386.696V388.136H224.24V386.696H228.221ZM237.502 385.328H235.635C235.601 385.087 235.532 384.872 235.426 384.685C235.321 384.494 235.186 384.332 235.022 384.199C234.857 384.065 234.667 383.963 234.451 383.892C234.238 383.821 234.006 383.786 233.756 383.786C233.304 383.786 232.911 383.898 232.576 384.122C232.24 384.344 231.98 384.668 231.796 385.094C231.611 385.517 231.519 386.031 231.519 386.636C231.519 387.259 231.611 387.781 231.796 388.205C231.983 388.628 232.245 388.947 232.58 389.163C232.915 389.379 233.303 389.487 233.743 389.487C233.99 389.487 234.219 389.455 234.429 389.389C234.642 389.324 234.831 389.229 234.996 389.104C235.161 388.976 235.297 388.821 235.405 388.639C235.516 388.457 235.593 388.25 235.635 388.017L237.502 388.026C237.453 388.426 237.333 388.812 237.14 389.185C236.949 389.554 236.692 389.885 236.368 390.178C236.047 390.467 235.664 390.697 235.218 390.868C234.775 391.036 234.273 391.119 233.713 391.119C232.935 391.119 232.239 390.943 231.625 390.591C231.015 390.239 230.532 389.729 230.176 389.061C229.824 388.393 229.648 387.585 229.648 386.636C229.648 385.685 229.827 384.875 230.185 384.207C230.543 383.54 231.029 383.031 231.642 382.682C232.256 382.33 232.946 382.153 233.713 382.153C234.219 382.153 234.688 382.224 235.12 382.366C235.554 382.509 235.939 382.716 236.275 382.989C236.61 383.259 236.882 383.589 237.093 383.982C237.306 384.374 237.442 384.822 237.502 385.328ZM241.748 391.128C241.086 391.128 240.514 390.987 240.031 390.706C239.551 390.422 239.18 390.027 238.919 389.521C238.657 389.013 238.527 388.423 238.527 387.753C238.527 387.077 238.657 386.486 238.919 385.98C239.18 385.472 239.551 385.077 240.031 384.795C240.514 384.511 241.086 384.369 241.748 384.369C242.41 384.369 242.981 384.511 243.461 384.795C243.944 385.077 244.316 385.472 244.578 385.98C244.839 386.486 244.97 387.077 244.97 387.753C244.97 388.423 244.839 389.013 244.578 389.521C244.316 390.027 243.944 390.422 243.461 390.706C242.981 390.987 242.41 391.128 241.748 391.128ZM241.757 389.722C242.058 389.722 242.309 389.636 242.511 389.466C242.713 389.293 242.865 389.057 242.967 388.759C243.072 388.46 243.125 388.121 243.125 387.74C243.125 387.359 243.072 387.02 242.967 386.722C242.865 386.423 242.713 386.187 242.511 386.014C242.309 385.841 242.058 385.754 241.757 385.754C241.453 385.754 241.197 385.841 240.99 386.014C240.785 386.187 240.63 386.423 240.525 386.722C240.423 387.02 240.372 387.359 240.372 387.74C240.372 388.121 240.423 388.46 240.525 388.759C240.63 389.057 240.785 389.293 240.99 389.466C241.197 389.636 241.453 389.722 241.757 389.722ZM246.15 393.455V384.455H247.94V385.554H248.021C248.1 385.378 248.216 385.199 248.366 385.017C248.52 384.832 248.718 384.679 248.963 384.557C249.21 384.432 249.517 384.369 249.883 384.369C250.36 384.369 250.801 384.494 251.204 384.744C251.608 384.991 251.93 385.365 252.172 385.865C252.413 386.362 252.534 386.986 252.534 387.736C252.534 388.466 252.416 389.082 252.18 389.585C251.947 390.085 251.629 390.464 251.225 390.723C250.825 390.979 250.376 391.107 249.879 391.107C249.527 391.107 249.227 391.048 248.98 390.932C248.735 390.815 248.535 390.669 248.379 390.493C248.223 390.314 248.103 390.134 248.021 389.952H247.966V393.455H246.15ZM247.927 387.727C247.927 388.116 247.981 388.456 248.089 388.746C248.197 389.036 248.353 389.261 248.558 389.423C248.762 389.582 249.011 389.662 249.304 389.662C249.599 389.662 249.849 389.581 250.054 389.419C250.258 389.254 250.413 389.027 250.518 388.737C250.626 388.445 250.68 388.108 250.68 387.727C250.68 387.349 250.627 387.017 250.522 386.73C250.417 386.443 250.262 386.219 250.058 386.057C249.853 385.895 249.602 385.814 249.304 385.814C249.008 385.814 248.758 385.892 248.554 386.048C248.352 386.205 248.197 386.426 248.089 386.713C247.981 387 247.927 387.338 247.927 387.727ZM256.701 391.128C256.039 391.128 255.467 390.987 254.984 390.706C254.504 390.422 254.133 390.027 253.872 389.521C253.61 389.013 253.48 388.423 253.48 387.753C253.48 387.077 253.61 386.486 253.872 385.98C254.133 385.472 254.504 385.077 254.984 384.795C255.467 384.511 256.039 384.369 256.701 384.369C257.363 384.369 257.934 384.511 258.414 384.795C258.897 385.077 259.27 385.472 259.531 385.98C259.792 386.486 259.923 387.077 259.923 387.753C259.923 388.423 259.792 389.013 259.531 389.521C259.27 390.027 258.897 390.422 258.414 390.706C257.934 390.987 257.363 391.128 256.701 391.128ZM256.71 389.722C257.011 389.722 257.262 389.636 257.464 389.466C257.666 389.293 257.818 389.057 257.92 388.759C258.025 388.46 258.078 388.121 258.078 387.74C258.078 387.359 258.025 387.02 257.92 386.722C257.818 386.423 257.666 386.187 257.464 386.014C257.262 385.841 257.011 385.754 256.71 385.754C256.406 385.754 256.15 385.841 255.943 386.014C255.738 386.187 255.583 386.423 255.478 386.722C255.376 387.02 255.325 387.359 255.325 387.74C255.325 388.121 255.376 388.46 255.478 388.759C255.583 389.057 255.738 389.293 255.943 389.466C256.15 389.636 256.406 389.722 256.71 389.722ZM261.103 391V384.455H262.863V385.597H262.931C263.051 385.19 263.251 384.884 263.532 384.676C263.814 384.466 264.137 384.361 264.504 384.361C264.595 384.361 264.693 384.366 264.798 384.378C264.903 384.389 264.995 384.405 265.075 384.425V386.036C264.99 386.01 264.872 385.987 264.721 385.967C264.571 385.947 264.433 385.938 264.308 385.938C264.041 385.938 263.802 385.996 263.592 386.112C263.385 386.226 263.22 386.385 263.098 386.589C262.978 386.794 262.919 387.03 262.919 387.297V391H261.103ZM267.692 391.124C267.275 391.124 266.903 391.051 266.576 390.906C266.249 390.759 265.991 390.541 265.8 390.254C265.613 389.964 265.519 389.604 265.519 389.172C265.519 388.808 265.586 388.503 265.719 388.256C265.853 388.009 266.035 387.81 266.265 387.659C266.495 387.509 266.756 387.395 267.049 387.318C267.344 387.241 267.654 387.188 267.978 387.156C268.359 387.116 268.665 387.08 268.898 387.045C269.131 387.009 269.3 386.955 269.406 386.884C269.511 386.812 269.563 386.707 269.563 386.568V386.543C269.563 386.273 269.478 386.064 269.308 385.916C269.14 385.768 268.901 385.695 268.592 385.695C268.265 385.695 268.005 385.767 267.812 385.912C267.619 386.054 267.491 386.233 267.428 386.449L265.749 386.312C265.835 385.915 266.002 385.571 266.252 385.281C266.502 384.989 266.825 384.764 267.219 384.608C267.617 384.449 268.077 384.369 268.6 384.369C268.964 384.369 269.312 384.412 269.644 384.497C269.979 384.582 270.276 384.714 270.535 384.893C270.796 385.072 271.002 385.303 271.153 385.584C271.303 385.862 271.379 386.196 271.379 386.585V391H269.657V390.092H269.606C269.501 390.297 269.36 390.477 269.184 390.634C269.008 390.787 268.796 390.908 268.549 390.996C268.302 391.081 268.016 391.124 267.692 391.124ZM268.212 389.871C268.479 389.871 268.715 389.818 268.92 389.713C269.124 389.605 269.285 389.46 269.401 389.278C269.518 389.097 269.576 388.891 269.576 388.661V387.966C269.519 388.003 269.441 388.037 269.342 388.068C269.245 388.097 269.136 388.124 269.013 388.149C268.891 388.172 268.769 388.193 268.647 388.213C268.525 388.23 268.414 388.246 268.315 388.26C268.102 388.291 267.915 388.341 267.756 388.409C267.597 388.477 267.474 388.57 267.386 388.686C267.298 388.8 267.254 388.942 267.254 389.112C267.254 389.359 267.343 389.548 267.522 389.679C267.704 389.807 267.934 389.871 268.212 389.871ZM276.268 384.455V385.818H272.327V384.455H276.268ZM273.222 382.886H275.037V388.989C275.037 389.156 275.063 389.287 275.114 389.381C275.165 389.472 275.236 389.536 275.327 389.572C275.42 389.609 275.528 389.628 275.651 389.628C275.736 389.628 275.821 389.621 275.906 389.607C275.991 389.589 276.057 389.577 276.102 389.568L276.388 390.919C276.297 390.947 276.169 390.98 276.004 391.017C275.839 391.057 275.639 391.081 275.403 391.089C274.966 391.107 274.582 391.048 274.253 390.915C273.926 390.781 273.672 390.574 273.49 390.293C273.308 390.011 273.219 389.656 273.222 389.227V382.886ZM277.451 391V384.455H279.266V391H277.451ZM278.363 383.611C278.093 383.611 277.862 383.521 277.668 383.342C277.478 383.161 277.383 382.943 277.383 382.69C277.383 382.44 277.478 382.226 277.668 382.047C277.862 381.865 278.093 381.774 278.363 381.774C278.633 381.774 278.863 381.865 279.053 382.047C279.246 382.226 279.343 382.44 279.343 382.69C279.343 382.943 279.246 383.161 279.053 383.342C278.863 383.521 278.633 383.611 278.363 383.611ZM283.678 391.128C283.016 391.128 282.444 390.987 281.961 390.706C281.48 390.422 281.11 390.027 280.848 389.521C280.587 389.013 280.456 388.423 280.456 387.753C280.456 387.077 280.587 386.486 280.848 385.98C281.11 385.472 281.48 385.077 281.961 384.795C282.444 384.511 283.016 384.369 283.678 384.369C284.34 384.369 284.911 384.511 285.391 384.795C285.874 385.077 286.246 385.472 286.507 385.98C286.769 386.486 286.9 387.077 286.9 387.753C286.9 388.423 286.769 389.013 286.507 389.521C286.246 390.027 285.874 390.422 285.391 390.706C284.911 390.987 284.34 391.128 283.678 391.128ZM283.686 389.722C283.988 389.722 284.239 389.636 284.441 389.466C284.642 389.293 284.794 389.057 284.897 388.759C285.002 388.46 285.054 388.121 285.054 387.74C285.054 387.359 285.002 387.02 284.897 386.722C284.794 386.423 284.642 386.187 284.441 386.014C284.239 385.841 283.988 385.754 283.686 385.754C283.382 385.754 283.127 385.841 282.919 386.014C282.715 386.187 282.56 386.423 282.455 386.722C282.353 387.02 282.301 387.359 282.301 387.74C282.301 388.121 282.353 388.46 282.455 388.759C282.56 389.057 282.715 389.293 282.919 389.466C283.127 389.636 283.382 389.722 283.686 389.722ZM289.895 387.216V391H288.08V384.455H289.81V385.609H289.887C290.032 385.229 290.275 384.928 290.615 384.706C290.956 384.482 291.37 384.369 291.855 384.369C292.31 384.369 292.706 384.469 293.044 384.668C293.382 384.866 293.645 385.151 293.833 385.52C294.02 385.886 294.114 386.324 294.114 386.832V391H292.299V387.156C292.301 386.756 292.199 386.443 291.992 386.219C291.784 385.991 291.499 385.878 291.135 385.878C290.891 385.878 290.675 385.93 290.488 386.036C290.303 386.141 290.158 386.294 290.053 386.496C289.951 386.695 289.898 386.935 289.895 387.216ZM296.606 391.111C296.325 391.111 296.083 391.011 295.881 390.812C295.683 390.611 295.583 390.369 295.583 390.088C295.583 389.81 295.683 389.571 295.881 389.372C296.083 389.173 296.325 389.074 296.606 389.074C296.879 389.074 297.117 389.173 297.322 389.372C297.526 389.571 297.629 389.81 297.629 390.088C297.629 390.276 297.58 390.447 297.484 390.604C297.39 390.757 297.266 390.881 297.113 390.974C296.96 391.065 296.79 391.111 296.606 391.111ZM303.025 391H301.047L304.06 382.273H306.438L309.446 391H307.469L305.283 384.267H305.215L303.025 391ZM302.901 387.57H307.571V389.01H302.901V387.57ZM312.278 382.273V391H310.463V382.273H312.278ZM315.548 382.273V391H313.732V382.273H315.548ZM319.779 391V384.455H321.539V385.597H321.607C321.727 385.19 321.927 384.884 322.208 384.676C322.489 384.466 322.813 384.361 323.18 384.361C323.271 384.361 323.369 384.366 323.474 384.378C323.579 384.389 323.671 384.405 323.751 384.425V386.036C323.665 386.01 323.548 385.987 323.397 385.967C323.246 385.947 323.109 385.938 322.984 385.938C322.717 385.938 322.478 385.996 322.268 386.112C322.06 386.226 321.896 386.385 321.773 386.589C321.654 386.794 321.594 387.03 321.594 387.297V391H319.779ZM324.689 391V384.455H326.505V391H324.689ZM325.601 383.611C325.331 383.611 325.1 383.521 324.907 383.342C324.716 383.161 324.621 382.943 324.621 382.69C324.621 382.44 324.716 382.226 324.907 382.047C325.1 381.865 325.331 381.774 325.601 381.774C325.871 381.774 326.101 381.865 326.292 382.047C326.485 382.226 326.581 382.44 326.581 382.69C326.581 382.943 326.485 383.161 326.292 383.342C326.101 383.521 325.871 383.611 325.601 383.611ZM330.908 393.591C330.32 393.591 329.815 393.51 329.395 393.348C328.977 393.189 328.645 392.972 328.398 392.696C328.151 392.42 327.99 392.111 327.916 391.767L329.595 391.541C329.646 391.672 329.727 391.794 329.838 391.908C329.949 392.021 330.095 392.112 330.277 392.18C330.462 392.251 330.686 392.287 330.95 392.287C331.345 392.287 331.67 392.19 331.926 391.997C332.185 391.807 332.314 391.487 332.314 391.038V389.841H332.237C332.158 390.023 332.038 390.195 331.879 390.357C331.72 390.518 331.516 390.651 331.266 390.753C331.016 390.855 330.717 390.906 330.371 390.906C329.879 390.906 329.432 390.793 329.028 390.565C328.628 390.335 328.308 389.984 328.07 389.513C327.834 389.038 327.716 388.439 327.716 387.714C327.716 386.973 327.837 386.354 328.078 385.857C328.32 385.359 328.641 384.987 329.041 384.74C329.445 384.493 329.886 384.369 330.366 384.369C330.733 384.369 331.04 384.432 331.287 384.557C331.534 384.679 331.733 384.832 331.884 385.017C332.037 385.199 332.155 385.378 332.237 385.554H332.305V384.455H334.108V391.064C334.108 391.621 333.972 392.087 333.699 392.462C333.426 392.837 333.048 393.118 332.565 393.305C332.085 393.496 331.533 393.591 330.908 393.591ZM330.946 389.543C331.239 389.543 331.486 389.47 331.688 389.325C331.892 389.178 332.048 388.967 332.156 388.695C332.267 388.419 332.322 388.089 332.322 387.706C332.322 387.322 332.268 386.99 332.161 386.709C332.053 386.425 331.896 386.205 331.692 386.048C331.487 385.892 331.239 385.814 330.946 385.814C330.648 385.814 330.396 385.895 330.192 386.057C329.987 386.216 329.832 386.437 329.727 386.722C329.622 387.006 329.57 387.334 329.57 387.706C329.57 388.084 329.622 388.411 329.727 388.686C329.835 388.959 329.99 389.17 330.192 389.321C330.396 389.469 330.648 389.543 330.946 389.543ZM337.368 387.216V391H335.553V382.273H337.317V385.609H337.393C337.541 385.223 337.78 384.92 338.109 384.702C338.439 384.48 338.852 384.369 339.349 384.369C339.804 384.369 340.2 384.469 340.538 384.668C340.879 384.864 341.143 385.146 341.331 385.516C341.521 385.882 341.615 386.321 341.612 386.832V391H339.797V387.156C339.8 386.753 339.697 386.439 339.49 386.214C339.286 385.99 338.999 385.878 338.629 385.878C338.382 385.878 338.163 385.93 337.973 386.036C337.786 386.141 337.638 386.294 337.53 386.496C337.425 386.695 337.371 386.935 337.368 387.216ZM346.522 384.455V385.818H342.581V384.455H346.522ZM343.475 382.886H345.291V388.989C345.291 389.156 345.316 389.287 345.368 389.381C345.419 389.472 345.49 389.536 345.581 389.572C345.674 389.609 345.782 389.628 345.904 389.628C345.99 389.628 346.075 389.621 346.16 389.607C346.245 389.589 346.311 389.577 346.356 389.568L346.642 390.919C346.551 390.947 346.423 390.98 346.258 391.017C346.093 391.057 345.893 391.081 345.657 391.089C345.22 391.107 344.836 391.048 344.507 390.915C344.18 390.781 343.926 390.574 343.744 390.293C343.562 390.011 343.473 389.656 343.475 389.227V382.886ZM353.069 386.321L351.407 386.423C351.379 386.281 351.317 386.153 351.224 386.04C351.13 385.923 351.006 385.831 350.853 385.763C350.702 385.692 350.522 385.656 350.312 385.656C350.031 385.656 349.793 385.716 349.6 385.835C349.407 385.952 349.31 386.108 349.31 386.304C349.31 386.46 349.373 386.592 349.498 386.7C349.623 386.808 349.837 386.895 350.141 386.96L351.326 387.199C351.962 387.33 352.437 387.54 352.749 387.83C353.062 388.119 353.218 388.5 353.218 388.972C353.218 389.401 353.092 389.777 352.839 390.101C352.589 390.425 352.245 390.678 351.808 390.859C351.373 391.038 350.871 391.128 350.303 391.128C349.437 391.128 348.746 390.947 348.232 390.587C347.721 390.223 347.421 389.729 347.333 389.104L349.119 389.01C349.173 389.274 349.303 389.476 349.511 389.615C349.718 389.751 349.984 389.82 350.308 389.82C350.626 389.82 350.881 389.759 351.075 389.636C351.271 389.511 351.37 389.351 351.373 389.155C351.37 388.99 351.3 388.855 351.164 388.75C351.028 388.642 350.817 388.56 350.533 388.503L349.4 388.277C348.761 388.149 348.285 387.928 347.972 387.612C347.663 387.297 347.508 386.895 347.508 386.406C347.508 385.986 347.621 385.624 347.849 385.32C348.079 385.016 348.401 384.781 348.816 384.616C349.234 384.452 349.722 384.369 350.282 384.369C351.109 384.369 351.759 384.544 352.234 384.893C352.711 385.243 352.989 385.719 353.069 386.321ZM357.138 391V384.455H358.898V385.597H358.967C359.086 385.19 359.286 384.884 359.567 384.676C359.849 384.466 360.173 384.361 360.539 384.361C360.63 384.361 360.728 384.366 360.833 384.378C360.938 384.389 361.031 384.405 361.11 384.425V386.036C361.025 386.01 360.907 385.987 360.756 385.967C360.606 385.947 360.468 385.938 360.343 385.938C360.076 385.938 359.837 385.996 359.627 386.112C359.42 386.226 359.255 386.385 359.133 386.589C359.013 386.794 358.954 387.03 358.954 387.297V391H357.138ZM364.727 391.128C364.054 391.128 363.474 390.991 362.988 390.719C362.505 390.443 362.133 390.054 361.872 389.551C361.61 389.045 361.48 388.447 361.48 387.757C361.48 387.084 361.61 386.493 361.872 385.984C362.133 385.476 362.501 385.08 362.975 384.795C363.453 384.511 364.012 384.369 364.654 384.369C365.086 384.369 365.488 384.439 365.86 384.578C366.235 384.714 366.562 384.92 366.841 385.196C367.122 385.472 367.341 385.818 367.497 386.236C367.653 386.651 367.731 387.136 367.731 387.693V388.192H362.204V387.067H366.022C366.022 386.805 365.966 386.574 365.852 386.372C365.738 386.17 365.581 386.013 365.379 385.899C365.18 385.783 364.949 385.724 364.684 385.724C364.409 385.724 364.164 385.788 363.951 385.916C363.741 386.041 363.576 386.21 363.457 386.423C363.338 386.634 363.277 386.868 363.274 387.126V388.196C363.274 388.52 363.333 388.8 363.453 389.036C363.575 389.271 363.747 389.453 363.968 389.581C364.19 389.709 364.453 389.773 364.757 389.773C364.958 389.773 365.143 389.744 365.311 389.688C365.478 389.631 365.622 389.545 365.741 389.432C365.86 389.318 365.951 389.179 366.014 389.014L367.693 389.125C367.608 389.528 367.433 389.881 367.169 390.182C366.907 390.48 366.569 390.713 366.154 390.881C365.743 391.045 365.267 391.128 364.727 391.128ZM374.362 386.321L372.7 386.423C372.672 386.281 372.61 386.153 372.517 386.04C372.423 385.923 372.299 385.831 372.146 385.763C371.995 385.692 371.815 385.656 371.605 385.656C371.324 385.656 371.086 385.716 370.893 385.835C370.7 385.952 370.603 386.108 370.603 386.304C370.603 386.46 370.666 386.592 370.791 386.7C370.916 386.808 371.13 386.895 371.434 386.96L372.619 387.199C373.255 387.33 373.73 387.54 374.042 387.83C374.355 388.119 374.511 388.5 374.511 388.972C374.511 389.401 374.385 389.777 374.132 390.101C373.882 390.425 373.538 390.678 373.1 390.859C372.666 391.038 372.164 391.128 371.596 391.128C370.73 391.128 370.039 390.947 369.525 390.587C369.014 390.223 368.714 389.729 368.626 389.104L370.412 389.01C370.466 389.274 370.596 389.476 370.804 389.615C371.011 389.751 371.277 389.82 371.6 389.82C371.919 389.82 372.174 389.759 372.368 389.636C372.564 389.511 372.663 389.351 372.666 389.155C372.663 388.99 372.593 388.855 372.457 388.75C372.321 388.642 372.11 388.56 371.826 388.503L370.693 388.277C370.054 388.149 369.578 387.928 369.265 387.612C368.956 387.297 368.801 386.895 368.801 386.406C368.801 385.986 368.914 385.624 369.142 385.32C369.372 385.016 369.694 384.781 370.109 384.616C370.527 384.452 371.015 384.369 371.575 384.369C372.402 384.369 373.052 384.544 373.527 384.893C374.004 385.243 374.282 385.719 374.362 386.321ZM378.637 391.128C377.964 391.128 377.384 390.991 376.898 390.719C376.415 390.443 376.043 390.054 375.782 389.551C375.521 389.045 375.39 388.447 375.39 387.757C375.39 387.084 375.521 386.493 375.782 385.984C376.043 385.476 376.411 385.08 376.886 384.795C377.363 384.511 377.923 384.369 378.565 384.369C378.996 384.369 379.398 384.439 379.771 384.578C380.146 384.714 380.472 384.92 380.751 385.196C381.032 385.472 381.251 385.818 381.407 386.236C381.563 386.651 381.641 387.136 381.641 387.693V388.192H376.114V387.067H379.933C379.933 386.805 379.876 386.574 379.762 386.372C379.648 386.17 379.491 386.013 379.289 385.899C379.09 385.783 378.859 385.724 378.594 385.724C378.319 385.724 378.075 385.788 377.862 385.916C377.651 386.041 377.487 386.21 377.367 386.423C377.248 386.634 377.187 386.868 377.184 387.126V388.196C377.184 388.52 377.244 388.8 377.363 389.036C377.485 389.271 377.657 389.453 377.879 389.581C378.1 389.709 378.363 389.773 378.667 389.773C378.869 389.773 379.053 389.744 379.221 389.688C379.388 389.631 379.532 389.545 379.651 389.432C379.771 389.318 379.862 389.179 379.924 389.014L381.603 389.125C381.518 389.528 381.343 389.881 381.079 390.182C380.817 390.48 380.479 390.713 380.065 390.881C379.653 391.045 379.177 391.128 378.637 391.128ZM382.826 391V384.455H384.586V385.597H384.654C384.773 385.19 384.974 384.884 385.255 384.676C385.536 384.466 385.86 384.361 386.227 384.361C386.317 384.361 386.415 384.366 386.521 384.378C386.626 384.389 386.718 384.405 386.798 384.425V386.036C386.712 386.01 386.594 385.987 386.444 385.967C386.293 385.947 386.156 385.938 386.031 385.938C385.763 385.938 385.525 385.996 385.315 386.112C385.107 386.226 384.942 386.385 384.82 386.589C384.701 386.794 384.641 387.03 384.641 387.297V391H382.826ZM394.038 384.455L391.749 391H389.704L387.415 384.455H389.333L390.692 389.138H390.761L392.116 384.455H394.038ZM397.739 391.128C397.065 391.128 396.486 390.991 396 390.719C395.517 390.443 395.145 390.054 394.884 389.551C394.622 389.045 394.491 388.447 394.491 387.757C394.491 387.084 394.622 386.493 394.884 385.984C395.145 385.476 395.513 385.08 395.987 384.795C396.464 384.511 397.024 384.369 397.666 384.369C398.098 384.369 398.5 384.439 398.872 384.578C399.247 384.714 399.574 384.92 399.852 385.196C400.134 385.472 400.352 385.818 400.509 386.236C400.665 386.651 400.743 387.136 400.743 387.693V388.192H395.216V387.067H399.034C399.034 386.805 398.977 386.574 398.864 386.372C398.75 386.17 398.592 386.013 398.391 385.899C398.192 385.783 397.96 385.724 397.696 385.724C397.42 385.724 397.176 385.788 396.963 385.916C396.753 386.041 396.588 386.21 396.469 386.423C396.349 386.634 396.288 386.868 396.286 387.126V388.196C396.286 388.52 396.345 388.8 396.464 389.036C396.587 389.271 396.759 389.453 396.98 389.581C397.202 389.709 397.464 389.773 397.768 389.773C397.97 389.773 398.155 389.744 398.322 389.688C398.49 389.631 398.634 389.545 398.753 389.432C398.872 389.318 398.963 389.179 399.026 389.014L400.705 389.125C400.619 389.528 400.445 389.881 400.18 390.182C399.919 390.48 399.581 390.713 399.166 390.881C398.754 391.045 398.278 391.128 397.739 391.128ZM404.339 391.107C403.842 391.107 403.392 390.979 402.989 390.723C402.588 390.464 402.27 390.085 402.034 389.585C401.801 389.082 401.685 388.466 401.685 387.736C401.685 386.986 401.805 386.362 402.047 385.865C402.288 385.365 402.609 384.991 403.01 384.744C403.413 384.494 403.855 384.369 404.335 384.369C404.702 384.369 405.007 384.432 405.251 384.557C405.499 384.679 405.697 384.832 405.848 385.017C406.001 385.199 406.118 385.378 406.197 385.554H406.253V382.273H408.064V391H406.274V389.952H406.197C406.112 390.134 405.991 390.314 405.835 390.493C405.682 390.669 405.482 390.815 405.234 390.932C404.99 391.048 404.692 391.107 404.339 391.107ZM404.915 389.662C405.207 389.662 405.455 389.582 405.656 389.423C405.861 389.261 406.017 389.036 406.125 388.746C406.236 388.456 406.291 388.116 406.291 387.727C406.291 387.338 406.237 387 406.129 386.713C406.021 386.426 405.865 386.205 405.661 386.048C405.456 385.892 405.207 385.814 404.915 385.814C404.616 385.814 404.365 385.895 404.161 386.057C403.956 386.219 403.801 386.443 403.696 386.73C403.591 387.017 403.538 387.349 403.538 387.727C403.538 388.108 403.591 388.445 403.696 388.737C403.804 389.027 403.959 389.254 404.161 389.419C404.365 389.581 404.616 389.662 404.915 389.662ZM410.618 391.111C410.336 391.111 410.095 391.011 409.893 390.812C409.694 390.611 409.595 390.369 409.595 390.088C409.595 389.81 409.694 389.571 409.893 389.372C410.095 389.173 410.336 389.074 410.618 389.074C410.89 389.074 411.129 389.173 411.333 389.372C411.538 389.571 411.64 389.81 411.64 390.088C411.64 390.276 411.592 390.447 411.495 390.604C411.402 390.757 411.278 390.881 411.125 390.974C410.971 391.065 410.802 391.111 410.618 391.111Z" fill="white"/>
<defs>
<clipPath id="clip0_26_2117">
<rect width="474" height="359" fill="white" transform="translate(10 10)"/>
</clipPath>
</defs>
</svg>
