<svg width="21" height="22" viewBox="0 0 21 22" fill="none" xmlns="http://www.w3.org/2000/svg">
<path d="M18.4011 13.2266H7.71356L7.95218 14.5391H17.7383C18.2998 14.5391 18.7159 15.1256 18.5915 15.7416L18.3904 16.7373C19.0718 17.1094 19.5417 17.8953 19.5417 18.8047C19.5417 20.0845 18.6113 21.1198 17.47 21.1013C16.3827 21.0837 15.4885 20.0911 15.4591 18.8681C15.4431 18.2001 15.681 17.5946 16.0717 17.164H8.42829C8.80662 17.581 9.04167 18.1618 9.04167 18.8047C9.04167 20.1095 8.0745 21.1603 6.90266 21.099C5.86214 21.0447 5.0159 20.0989 4.96121 18.9286C4.919 18.0249 5.34169 17.2283 5.98391 16.8128L3.42282 2.72656H0.875C0.391745 2.72656 0 2.28585 0 1.74219V1.08594C0 0.542275 0.391745 0.101562 0.875 0.101562H4.61304C5.0287 0.101562 5.38698 0.430549 5.47028 0.888652L5.80446 2.72656H20.1246C20.6861 2.72656 21.1023 3.31313 20.9779 3.9291L19.2544 12.4603C19.1639 12.9085 18.8097 13.2266 18.4011 13.2266ZM14.875 6.99219H13.125V5.35156C13.125 4.98911 12.8639 4.69531 12.5417 4.69531H11.9583C11.6362 4.69531 11.375 4.98911 11.375 5.35156V6.99219H9.625C9.30282 6.99219 9.04167 7.28598 9.04167 7.64844V8.30469C9.04167 8.66714 9.30282 8.96094 9.625 8.96094H11.375V10.6016C11.375 10.964 11.6362 11.2578 11.9583 11.2578H12.5417C12.8639 11.2578 13.125 10.964 13.125 10.6016V8.96094H14.875C15.1972 8.96094 15.4583 8.66714 15.4583 8.30469V7.64844C15.4583 7.28598 15.1972 6.99219 14.875 6.99219Z" fill="white"/>
</svg>
