<svg width="26" height="27" viewBox="0 0 26 27" fill="none" xmlns="http://www.w3.org/2000/svg">
<path d="M21.6969 5.60298C19.2133 3.65084 15.3762 3.94406 13 6.2055C10.6238 3.94406 6.78672 3.64682 4.30313 5.60298C1.07188 8.14559 1.54454 12.2909 3.84766 14.4881L11.3844 21.666C11.8141 22.0757 12.3898 22.3047 13 22.3047C13.6145 22.3047 14.1859 22.0797 14.6156 21.67L22.1523 14.4921C24.4512 12.2949 24.9324 8.14961 21.6969 5.60298ZM20.6828 13.1344L13.1461 20.3124C13.043 20.4088 12.957 20.4088 12.8539 20.3124L5.31719 13.1344C3.74883 11.6402 3.43086 8.81238 5.63086 7.08115C7.30235 5.76767 9.88047 5.96449 11.4961 7.50291L13 8.9369L14.5039 7.50291C16.1281 5.95646 18.7062 5.76767 20.3691 7.07714C22.5648 8.80836 22.2383 11.6522 20.6828 13.1344Z" fill="white"/>
</svg>
