<svg width="26" height="26" viewBox="0 0 26 26" fill="none" xmlns="http://www.w3.org/2000/svg">
<path d="M21.6969 5.2983C19.2133 3.34615 15.3762 3.63937 13 5.90081C10.6238 3.63937 6.78672 3.34213 4.30313 5.2983C1.07188 7.84091 1.54454 11.9862 3.84766 14.1834L11.3844 21.3613C11.8141 21.771 12.3898 22 13 22C13.6145 22 14.1859 21.7751 14.6156 21.3654L22.1523 14.1874C24.4512 11.9902 24.9324 7.84492 21.6969 5.2983ZM20.6828 12.8297L13.1461 20.0077C13.043 20.1041 12.957 20.1041 12.8539 20.0077L5.31719 12.8297C3.74883 11.3355 3.43086 8.50769 5.63086 6.77646C7.30235 5.46298 9.88047 5.6598 11.4961 7.19822L13 8.63221L14.5039 7.19822C16.1281 5.65177 18.7062 5.46298 20.3691 6.77245C22.5648 8.50367 22.2383 11.3475 20.6828 12.8297Z" fill="white"/>
<path fill-rule="evenodd" clip-rule="evenodd" d="M23 9.5C23 12.0195 21.3047 14.1445 18.9922 14.7949C18.8477 17.5293 16.7051 19.7344 14 19.9785V21H12V19.793C11.3848 19.6191 10.8105 19.3398 10.3027 18.9766C9.29883 18.2578 8.54688 17.2109 8.20508 15.9922C5.30469 15.8379 3 13.4375 3 10.5C3 7.46289 5.46289 5 8.5 5C10.1582 5 11.6465 5.73438 12.6543 6.89648C13.2637 5.76367 14.2578 4.86914 15.4609 4.38867C16.0918 4.13867 16.7793 4 17.5 4C20.5371 4 23 6.46289 23 9.5Z" fill="white"/>
</svg>
